<svg width="970" height="239" viewBox="0 0 970 239" fill="none" xmlns="http://www.w3.org/2000/svg">
<path d="M274.19 180.695V52.9345H321.668C330.761 52.9345 338.415 54.7186 344.631 58.2867C350.961 61.7397 355.738 66.3437 358.961 72.0986C362.184 77.7385 363.795 83.8964 363.795 90.5722C363.795 98.6291 361.493 105.938 356.889 112.499C352.4 119.059 345.782 123.663 337.034 126.311L367.766 180.695H345.149L316.144 128.555H294.39V180.695H274.19ZM321.323 70.5448H294.39V111.635H321.323C328.574 111.635 334.042 109.564 337.725 105.42C341.408 101.161 343.25 96.3847 343.25 91.0901C343.25 85.7955 341.408 81.0764 337.725 76.9328C334.042 72.6741 328.574 70.5448 321.323 70.5448ZM421.255 182.422C413.543 182.422 406.867 181.098 401.228 178.451C395.703 175.688 391.099 172.063 387.416 167.574C383.847 162.97 381.143 157.848 379.301 152.208C377.575 146.568 376.711 140.813 376.711 134.943C376.711 129.188 377.575 123.491 379.301 117.851C381.028 112.211 383.675 107.089 387.243 102.485C390.811 97.881 395.357 94.2554 400.882 91.6081C406.407 88.8457 412.91 87.4645 420.392 87.4645C428.449 87.4645 435.527 89.3061 441.628 92.9893C447.843 96.5574 452.677 101.909 456.13 109.046C459.698 116.067 461.482 124.814 461.482 135.288V140.641H396.566C397.026 147.662 399.386 153.704 403.645 158.769C407.903 163.833 413.773 166.365 421.255 166.365C425.514 166.365 429.024 165.675 431.787 164.294C434.549 162.797 436.678 161.128 438.175 159.287C439.671 157.445 440.707 155.834 441.282 154.453C441.973 153.071 442.318 152.381 442.318 152.381H460.619C460.619 152.381 460.331 153.417 459.756 155.488C459.18 157.445 458.087 159.92 456.475 162.912C454.979 165.905 452.792 168.898 449.915 171.89C447.037 174.883 443.239 177.415 438.52 179.487C433.801 181.443 428.046 182.422 421.255 182.422ZM396.739 126.829H442.491C442.03 118.772 439.613 112.844 435.24 109.046C430.981 105.247 425.974 103.348 420.219 103.348C413.773 103.348 408.421 105.478 404.163 109.736C399.904 113.88 397.429 119.577 396.739 126.829ZM517.715 182.422C510.464 182.422 504.651 181.098 500.277 178.451C495.903 175.804 492.738 172.293 490.781 167.919C488.94 163.43 488.019 158.596 488.019 153.417V105.075H471.963V89.191H488.019V66.4012H507.701V89.191H529.11V105.075H507.701V153.071C507.701 161.704 512.478 166.02 522.031 166.02C524.448 166.02 526.693 165.847 528.764 165.502C530.836 165.157 531.872 164.984 531.872 164.984V181.041C531.872 181.041 530.433 181.271 527.556 181.731C524.793 182.192 521.513 182.422 517.715 182.422ZM585.4 87.4645C591.155 87.4645 595.932 88.3853 599.73 90.2269C603.644 92.0685 606.751 94.1978 609.053 96.6149C611.355 99.032 613.024 101.104 614.06 102.83H615.096V89.191H634.778V180.695H615.096V167.056H614.06C613.024 168.782 611.355 170.854 609.053 173.271C606.751 175.688 603.644 177.818 599.73 179.659C595.932 181.501 591.155 182.422 585.4 182.422C578.494 182.422 572.452 181.098 567.272 178.451C562.208 175.688 557.949 172.063 554.496 167.574C551.043 162.97 548.453 157.848 546.727 152.208C545.115 146.568 544.31 140.813 544.31 134.943C544.31 129.073 545.115 123.318 546.727 117.678C548.453 112.038 551.043 106.974 554.496 102.485C557.949 97.881 562.208 94.2554 567.272 91.6081C572.452 88.8457 578.494 87.4645 585.4 87.4645ZM589.717 103.866C584.077 103.866 579.358 105.42 575.559 108.528C571.761 111.52 568.883 115.376 566.927 120.095C565.085 124.814 564.164 129.764 564.164 134.943C564.164 140.123 565.085 145.072 566.927 149.791C568.883 154.51 571.761 158.423 575.559 161.531C579.358 164.524 584.077 166.02 589.717 166.02C595.356 166.02 600.018 164.524 603.701 161.531C607.499 158.423 610.319 154.51 612.161 149.791C614.118 145.072 615.096 140.123 615.096 134.943C615.096 129.764 614.118 124.814 612.161 120.095C610.319 115.376 607.499 111.52 603.701 108.528C600.018 105.42 595.356 103.866 589.717 103.866ZM698.903 182.422C691.191 182.422 684.458 181.098 678.703 178.451C672.948 175.688 668.171 172.063 664.373 167.574C660.574 162.97 657.697 157.848 655.74 152.208C653.899 146.568 652.978 140.813 652.978 134.943C652.978 129.073 653.899 123.318 655.74 117.678C657.697 112.038 660.574 106.974 664.373 102.485C668.171 97.881 672.948 94.2554 678.703 91.6081C684.458 88.8457 691.191 87.4645 698.903 87.4645C706.499 87.4645 712.772 88.6155 717.721 90.9175C722.786 93.1044 726.814 95.8668 729.807 99.2046C732.799 102.543 735.044 105.88 736.54 109.218C738.037 112.556 738.957 115.376 739.303 117.678C739.763 119.98 739.993 121.131 739.993 121.131H721.347C721.347 121.131 721.059 120.268 720.484 118.541C720.023 116.815 719.045 114.801 717.549 112.499C716.052 110.197 713.808 108.182 710.815 106.456C707.938 104.729 704.025 103.866 699.075 103.866C693.205 103.866 688.313 105.362 684.4 108.355C680.487 111.233 677.494 115.031 675.422 119.75C673.466 124.469 672.487 129.533 672.487 134.943C672.487 140.353 673.466 145.417 675.422 150.136C677.494 154.855 680.487 158.711 684.4 161.704C688.313 164.581 693.205 166.02 699.075 166.02C704.025 166.02 707.938 165.157 710.815 163.43C713.808 161.704 716.052 159.69 717.549 157.388C719.045 155.086 720.023 153.071 720.484 151.345C721.059 149.618 721.347 148.755 721.347 148.755H739.993C739.993 148.755 739.763 149.906 739.303 152.208C738.957 154.51 738.037 157.33 736.54 160.668C735.044 164.006 732.799 167.344 729.807 170.682C726.814 174.02 722.786 176.839 717.721 179.141C712.772 181.328 706.499 182.422 698.903 182.422ZM797.859 182.422C790.608 182.422 784.795 181.098 780.422 178.451C776.048 175.804 772.883 172.293 770.926 167.919C769.084 163.43 768.163 158.596 768.163 153.417V105.075H752.107V89.191H768.163V66.4012H787.846V89.191H809.254V105.075H787.846V153.071C787.846 161.704 792.622 166.02 802.175 166.02C804.593 166.02 806.837 165.847 808.909 165.502C810.981 165.157 812.016 164.984 812.016 164.984V181.041C812.016 181.041 810.578 181.271 807.7 181.731C804.938 182.192 801.658 182.422 797.859 182.422ZM840.964 73.4798C837.396 73.4798 834.46 72.2713 832.158 69.8542C829.856 67.4371 828.705 64.6172 828.705 61.3944C828.705 58.0565 829.856 55.2365 832.158 52.9345C834.46 50.5174 837.396 49.3089 840.964 49.3089C844.532 49.3089 847.467 50.5174 849.769 52.9345C852.186 55.2365 853.394 58.0565 853.394 61.3944C853.394 64.7323 852.186 67.6097 849.769 70.0268C847.467 72.3288 844.532 73.4798 840.964 73.4798ZM831.295 180.695V89.191H850.977V180.695H831.295ZM917.17 182.422C909.458 182.422 902.725 181.098 896.97 178.451C891.215 175.688 886.438 172.063 882.64 167.574C878.841 162.97 875.964 157.848 874.007 152.208C872.166 146.568 871.245 140.813 871.245 134.943C871.245 129.073 872.166 123.318 874.007 117.678C875.964 112.038 878.841 106.974 882.64 102.485C886.438 97.881 891.215 94.2554 896.97 91.6081C902.725 88.8457 909.458 87.4645 917.17 87.4645C924.766 87.4645 931.039 88.6155 935.988 90.9175C941.053 93.1044 945.081 95.8668 948.074 99.2046C951.066 102.543 953.311 105.88 954.807 109.218C956.304 112.556 957.224 115.376 957.57 117.678C958.03 119.98 958.26 121.131 958.26 121.131H939.614C939.614 121.131 939.326 120.268 938.751 118.541C938.29 116.815 937.312 114.801 935.816 112.499C934.319 110.197 932.075 108.182 929.082 106.456C926.205 104.729 922.292 103.866 917.342 103.866C911.472 103.866 906.58 105.362 902.667 108.355C898.754 111.233 895.761 115.031 893.689 119.75C891.733 124.469 890.754 129.533 890.754 134.943C890.754 140.353 891.733 145.417 893.689 150.136C895.761 154.855 898.754 158.711 902.667 161.704C906.58 164.581 911.472 166.02 917.342 166.02C922.292 166.02 926.205 165.157 929.082 163.43C932.075 161.704 934.319 159.69 935.816 157.388C937.312 155.086 938.29 153.071 938.751 151.345C939.326 149.618 939.614 148.755 939.614 148.755H958.26C958.26 148.755 958.03 149.906 957.57 152.208C957.224 154.51 956.304 157.33 954.807 160.668C953.311 164.006 951.066 167.344 948.074 170.682C945.081 174.02 941.053 176.839 935.988 179.141C931.039 181.328 924.766 182.422 917.17 182.422Z" fill="#343434"/>
<path d="M190.612 148.713C166.674 193.12 133.199 215.456 117.225 224.514C101.259 215.47 67.7771 193.12 43.8387 148.713C20.2662 104.987 18.5009 63.1962 19.0176 43.3827C35.486 32.9492 69.6213 14.9558 115.611 14.5473C163.301 14.1174 198.742 32.8274 215.426 43.3827C215.95 63.1891 214.178 104.995 190.612 148.706V148.713Z" stroke="#343434" stroke-width="18.593" stroke-miterlimit="10"/>
<path d="M70.3887 189.3L70.3887 71.3965" stroke="#343434" stroke-width="18.593" stroke-miterlimit="10"/>
<path d="M70.3887 189.3L70.3887 71.3965" stroke="url(#paint0_linear_1050_6498)" stroke-opacity="0.15" stroke-width="18.593" stroke-miterlimit="10"/>
<path d="M152.238 121.629C140.821 142.811 124.855 153.467 117.234 157.781C109.621 153.467 93.6472 142.811 82.2305 121.629C70.986 100.776 70.1465 80.841 70.3904 71.3964C78.2479 66.4162 94.5298 57.8386 116.459 57.6452C139.206 57.4374 156.112 66.366 164.063 71.3964C164.314 80.8482 163.475 100.784 152.238 121.629Z" stroke="#343434" stroke-width="18.593" stroke-miterlimit="10"/>
<path d="M152.238 121.629C140.821 142.811 124.855 153.467 117.234 157.781C109.621 153.467 93.6472 142.811 82.2305 121.629C70.986 100.776 70.1465 80.841 70.3904 71.3964C78.2479 66.4162 94.5298 57.8386 116.459 57.6452C139.206 57.4374 156.112 66.366 164.063 71.3964C164.314 80.8482 163.475 100.784 152.238 121.629Z" stroke="url(#paint1_linear_1050_6498)" stroke-opacity="0.15" stroke-width="18.593" stroke-miterlimit="10"/>
<path d="M89.8984 133.626C100.354 146.03 119.609 162.758 148.381 175.955C157.688 179.552 164.919 181.275 172.769 182.665" stroke="#343434" stroke-width="18.593" stroke-miterlimit="10"/>
<path d="M117.216 157.788C109.603 153.475 93.6296 142.819 82.2129 121.637C70.9685 100.784 70.1289 80.8488 70.3729 71.4042C78.2304 66.424 94.5122 57.8465 116.441 57.653C139.189 57.4452 156.095 66.3738 164.046 71.4042" stroke="#343434" stroke-width="18.593" stroke-miterlimit="10"/>
<defs>
<linearGradient id="paint0_linear_1050_6498" x1="70.2971" y1="99.7168" x2="70.2971" y2="152.803" gradientUnits="userSpaceOnUse">
<stop offset="0.333333" stop-color="white"/>
<stop offset="1" stop-color="white" stop-opacity="0"/>
</linearGradient>
<linearGradient id="paint1_linear_1050_6498" x1="126.266" y1="152.796" x2="156.118" y2="116.258" gradientUnits="userSpaceOnUse">
<stop stop-color="white"/>
<stop offset="1" stop-color="white" stop-opacity="0"/>
</linearGradient>
</defs>
</svg>
