<svg width="674" height="220" viewBox="0 0 674 220" fill="none" xmlns="http://www.w3.org/2000/svg">
<path d="M106.114 61.1328C105.985 62.161 105.84 63.1891 105.703 64.2173C105.505 63.9089 105.317 63.6261 105.111 63.3776C105.257 62.6665 105.454 61.9639 105.651 60.9443C105.857 61.03 106.011 61.09 106.105 61.1328H106.114Z" fill="#232323"/>
<path d="M106.114 61.1328C105.985 62.161 105.84 63.1891 105.703 64.2173C105.505 63.9089 105.317 63.6261 105.111 63.3776C105.257 62.6665 105.454 61.9639 105.651 60.9443C105.857 61.03 106.011 61.09 106.105 61.1328H106.114Z" fill="#232323"/>
<path d="M162.774 115.385C161.617 115.171 161.343 114.785 159.92 114.459C158.481 114.117 157.924 114.322 157.804 114.057C157.616 113.671 158.575 112.557 164.033 109.224C162.971 109.499 161.437 109.987 159.723 110.878C156.433 112.6 155.559 114.22 153.494 115.248C151.764 116.105 149.005 116.636 144.532 115.025C147.814 113.131 149.339 110.989 150.127 109.413C152.124 105.386 150.71 102.207 152.064 95.4214C152.603 92.6968 153.374 90.5291 153.931 89.1411C152.723 91.2917 152.004 93.1252 151.575 94.3247C150.247 98.1032 150.436 99.7997 148.876 104.341C148.182 106.397 147.822 107.425 147.197 108.522C144.824 112.669 140.891 114.605 139.477 115.325C137.018 116.327 134.062 117.707 130.884 119.635C130.507 116.961 130.995 115.136 131.466 114.023C132.803 110.81 135.399 109.841 139.135 104.632C139.614 103.955 139.983 103.398 140.206 103.064C139.76 103.45 139.092 104.015 138.269 104.683C133.617 108.47 131.749 109.259 130.369 110.664C128.759 112.309 127.268 115.359 127.928 121.519C126.008 122.839 124.029 124.347 122.067 126.078C118.828 128.931 116.147 131.912 113.928 134.817C113.696 133.746 113.448 132.581 113.208 131.313C112.599 128.125 112.291 126.48 112.24 124.373C112.154 120.988 112.077 118.144 113.696 115.65C115.547 112.797 117.363 113.86 119.848 110.964C123.104 107.16 120.859 104.289 124.098 101.453C125.94 99.8425 127.696 99.8853 129.804 97.3149C130.652 96.2868 131.166 95.2929 131.475 94.6246C130.935 95.4386 129.787 96.9294 127.791 98.0518C126.085 99.0028 124.5 99.277 123.566 99.3713C123.464 98.8229 123.361 97.9661 123.369 96.9294C123.387 95.9783 123.489 95.3529 123.764 93.6307C123.884 92.9281 124.063 91.7629 124.286 90.2721C123.438 91.6601 122.333 93.8363 121.844 96.6723C121.484 98.7801 121.819 99.1656 121.45 101.419C121.065 103.792 120.542 106.954 118.092 109.002C117.432 109.55 115.89 110.638 113.216 110.844C114.167 109.156 115.213 106.808 115.753 103.895C117.089 96.6381 114.39 90.7604 113.216 88.5499C114.227 88.0444 115.735 87.1705 117.226 85.7396C118.4 84.6086 118.974 83.7004 120.336 81.824C122.615 78.6882 123.755 77.1116 124.243 76.709C127.568 74.0272 130.729 75.3895 133.385 72.3907C134.148 71.5253 134.568 70.6343 134.791 70.0859C134.157 70.9941 133.086 72.245 131.423 73.1104C129.358 74.19 128.305 73.6502 126.317 74.2671C124.029 74.9697 122.436 76.8889 119.257 80.7359C117.021 83.4348 116.018 85.2084 113.679 85.7996C112.737 86.0309 111.897 85.9966 111.34 85.9195C111.263 85.3026 111.152 84.3687 111.04 83.2463C110.68 79.7506 110.552 77.6429 110.466 76.709C109.969 71.0884 107.433 70.9084 106.885 65.5791C106.508 61.8692 107.424 61.278 107.313 56.2743C107.279 54.8006 107.073 52.6929 106.251 50.1396C106.328 51.6819 106.379 54.0895 106.148 57.0112C106.011 58.7676 105.822 60.0014 105.634 60.9439C104.708 60.5669 102.738 59.7015 101.238 58.6476C100.322 58.0051 99.8246 57.4567 99.4648 56.9255C99.3277 56.7284 99.1049 56.4028 98.9079 55.9487C98.4966 55.032 98.3681 54.1837 98.3338 53.5497C98.171 54.2351 97.914 55.7602 98.5994 57.3882C99.0792 58.5277 99.8075 59.2474 100.236 59.6501C101.538 60.901 102.326 60.8068 103.732 61.9549C104.117 62.2719 104.606 62.726 105.103 63.3686C104.948 64.114 104.854 64.8594 104.888 65.9904C105.025 71.1226 107.364 71.4139 107.947 77.8656C108.264 81.3528 107.63 81.7898 108.324 84.5487C109.095 87.6246 110.269 88.5413 111.023 91.7372C111.588 94.0934 111.528 95.9441 111.434 97.8205C111.186 103.175 109.704 107.751 107.913 112.575C106.756 109.721 105.265 107.639 103.74 106.089C100.27 102.559 97.4513 102.576 96.0461 99.277C94.9837 96.8266 95.8919 95.2758 96.3289 90.2635C96.5688 87.4446 96.6545 83.6147 96.0376 78.988C96.0376 80.8216 96.0033 82.3638 95.9776 83.4862C95.8577 87.3761 95.7891 89.3467 95.2665 91.1032C94.7267 92.8596 94.2983 93.1423 93.9727 94.0934C92.8589 89.2439 90.7854 86.9306 89.0632 85.7139C86.7328 84.0603 84.3937 83.9489 82.5687 83.0664C82.2003 82.4238 81.9775 81.7127 82.0975 80.9758C82.3545 79.3479 84.0681 78.9024 85.439 76.8803C86.3558 75.5266 86.6642 74.1129 86.7756 73.059C86.57 74.2071 86.1587 74.9954 85.8074 75.518C85.5589 75.8864 85.1991 76.3405 82.7144 78.4225C81.4634 79.4678 81.1122 79.7334 80.8209 80.3589C80.6752 80.6759 80.5809 80.9929 80.5381 81.3014C80.4953 81.2328 80.4524 81.1643 80.4096 81.0958C79.1672 79.0052 79.8698 77.1031 77.9934 75.1839C76.871 74.0357 75.5001 73.5559 74.5834 73.3417C75.0632 73.6159 75.7829 74.0786 76.4855 74.8154C78.9445 77.3601 78.1476 79.9048 79.6128 82.4067C81.5149 85.6625 84.3509 83.9489 87.3925 87.2476C90.1428 90.2378 88.9433 92.851 91.4709 97.9661C93.0988 101.248 95.2236 103.501 96.723 104.855C98.0682 106.346 99.619 107.365 100.921 108.71C102.806 110.664 104.751 113.885 105.308 119.523C104.854 120.954 104.597 122.299 104.588 124.004C104.588 126.48 105.111 127.988 105.488 129.762C106.542 134.654 105.351 137.019 104.965 141.346C104.64 140.506 104.211 139.649 103.646 138.81C101.658 135.794 100.065 136.025 98.5566 133.292C96.6373 129.788 98.4452 127.954 96.5174 124.424C95.5492 122.642 94.7867 122.548 93.3815 121.4C93.2016 121.254 93.0388 121.117 92.8846 120.971C92.2163 120.354 91.7536 119.832 91.5822 119.626C88.8233 116.276 87.8038 115.093 87.0755 113.046C86.767 112.172 86.5186 111.384 86.6642 110.484C86.767 109.858 86.9641 109.619 87.1954 108.899C87.3925 108.265 87.5981 107.314 87.5039 106.037C87.3668 106.466 87.144 106.997 86.7842 107.571C86.3129 108.316 85.7817 108.83 85.379 109.164C84.8135 109.19 83.5969 109.164 82.2945 108.479C80.6752 107.631 79.9212 106.294 79.6727 105.797C79.8013 106.294 80.024 106.98 80.4439 107.716C80.6495 108.085 81.0436 108.77 81.7633 109.456C82.6887 110.33 83.6997 110.758 84.3851 110.972C84.6336 111.726 85.0192 112.797 85.5675 114.065C87.3839 118.187 89.6801 121.177 90.8368 122.565C91.3937 123.242 91.8136 123.713 92.1563 124.056C91.2824 123.876 90.2028 123.619 88.6606 122.685C86.5357 121.408 86.5785 120.68 83.5112 118.632C81.789 117.484 80.9408 116.91 79.6899 116.49C76.3655 115.342 75.4059 116.927 72.013 116.207C69.3569 115.642 69.5454 114.588 64.6445 112.66C62.5111 111.821 60.4976 111.246 60.4462 111.392C60.3948 111.538 62.5882 112.343 65.5099 114.091C68.3373 115.788 68.2688 116.233 69.7425 116.978C73.6323 118.941 75.2602 116.482 79.1158 117.878C82.7058 119.18 81.9775 121.554 87.4096 124.724C89.783 126.12 90.5112 126.001 91.8221 127.251C93.7414 129.068 94.5211 131.51 94.8381 133.652C94.9237 134.174 94.9666 134.671 95.0009 135.143V135.16C95.7548 137.353 96.9115 140.695 98.3424 144.799C99.9789 149.52 100.167 150.034 100.382 150.771C101.324 154.009 102.078 158.884 100.878 165.653C102.995 165.533 105.248 165.465 107.63 165.49C110.226 165.516 112.677 165.645 114.956 165.833C114.262 162.414 113.619 156.897 115.05 150.471C117.2 140.797 122.753 134.894 127.576 129.779C133.026 123.996 139.589 116.978 145.706 117.895C147.206 118.118 149.99 119.026 152.955 117.741C155.011 116.85 155.439 115.659 157.367 115.53C159.312 115.402 160.16 116.533 162.405 116.31C163.639 116.19 164.616 115.736 165.25 115.368C164.17 115.556 163.348 115.479 162.791 115.368L162.774 115.385Z" fill="#232323"/>
<path d="M164.119 126.001C162.072 125.769 160.075 125.709 158.165 125.281C155.868 124.758 154.686 122.848 153.529 121.014L153.692 120.766L158.062 122.342L158.156 122.196C157.539 121.811 156.939 121.4 156.314 121.04C155.671 120.663 155.003 120.329 154.326 119.96C158.027 118.375 163.091 121.468 164.128 126.009L164.119 126.001Z" fill="#232323"/>
<path d="M133.163 133.404C131.398 133.241 129.633 133.078 127.859 132.915C129.753 131.502 131.843 130.636 134.2 131.647C135.845 132.35 137.361 133.335 139.023 134.235C137.575 135.203 136.05 135.76 134.448 135.965C133.137 136.137 131.784 136.103 130.464 135.991C129.376 135.897 128.656 135.117 127.962 133.995C129.796 133.875 131.475 133.772 133.146 133.661L133.163 133.404V133.404Z" fill="#232323"/>
<path d="M153.024 125.667C148.595 127.474 144.619 126.318 142.537 122.462C144.096 122.959 145.527 123.413 146.95 123.867L147.052 123.67L143.231 121.562C145.27 120.911 147.13 121.066 148.8 122.291C150.223 123.345 151.568 124.501 153.024 125.667V125.667Z" fill="#232323"/>
<path d="M135.734 126.669L139.95 127.663C138.853 126.54 137.388 126.112 135.991 125.521C136.583 124.886 137.868 124.775 139.264 125.075C142.289 125.735 143.386 128.099 144.388 130.738C141.363 130.773 138.596 130.276 136.343 128.177C135.991 127.851 135.829 127.32 135.58 126.883L135.726 126.669H135.734Z" fill="#232323"/>
<path d="M154.464 128.819L158.071 130.087L158.165 129.908L155.098 128.074C157.163 127.534 158.902 127.911 160.358 129.179C161.387 130.062 162.261 131.124 163.177 132.084C160.367 133.103 155.715 132.212 154.455 128.819H154.464Z" fill="#232323"/>
<path d="M154.481 134.432C150.591 134.424 147.215 132.273 146.727 129.36L149.922 131.356L150.085 131.219L147.729 128.957C150.505 128.752 152.733 130.559 154.472 134.432H154.481Z" fill="#232323"/>
<path d="M60.3522 122.916L56.5909 123.602L56.5223 123.413L59.8381 122.094C57.8846 121.228 56.1111 121.34 54.466 122.351C53.3093 123.062 52.2812 123.97 51.2188 124.775C53.832 126.232 58.5701 126.078 60.3522 122.925V122.916Z" fill="#232323"/>
<path d="M58.0137 129.48C61.7922 130.405 65.5878 129.128 66.7616 126.412L63.1802 127.578L63.0516 127.406L65.8791 125.778C63.2401 124.913 60.6355 126.138 58.0137 129.471V129.48Z" fill="#232323"/>
<path d="M173.553 124.921C171.539 124.484 169.56 124.227 167.701 123.601C165.464 122.847 164.488 120.825 163.52 118.889L163.708 118.658L167.889 120.671L167.992 120.534C167.418 120.089 166.861 119.617 166.278 119.197C165.679 118.76 165.045 118.358 164.411 117.921C168.249 116.713 172.979 120.303 173.553 124.929V124.921Z" fill="#232323"/>
<path d="M180.399 123.182C178.839 122.839 177.297 122.642 175.858 122.153C174.127 121.571 173.365 120.003 172.619 118.495L172.765 118.315L176.012 119.874L176.098 119.772C175.652 119.42 175.224 119.06 174.761 118.735C174.29 118.392 173.81 118.084 173.313 117.75C176.295 116.816 179.962 119.6 180.407 123.19L180.399 123.182Z" fill="#232323"/>
<path d="M182.199 111.075C180.648 111.41 179.166 111.864 177.658 112.018C175.85 112.206 174.513 111.093 173.211 110.039L173.262 109.816L176.844 109.893L176.878 109.765C176.33 109.627 175.79 109.482 175.242 109.37C174.676 109.25 174.111 109.173 173.519 109.071C175.833 106.997 180.305 108.008 182.19 111.075H182.199Z" fill="#232323"/>
<path d="M175.644 115.094C173.622 115.471 171.695 116.011 169.741 116.156C167.393 116.336 165.697 114.854 164.061 113.44L164.138 113.149L168.773 113.372L168.816 113.209C168.113 113.02 167.419 112.806 166.708 112.643C165.98 112.472 165.251 112.344 164.489 112.198C167.556 109.593 173.305 111.058 175.636 115.094H175.644Z" fill="#232323"/>
<path d="M175.404 103.158C174.127 104.769 173.022 106.44 171.642 107.836C169.98 109.516 167.735 109.507 165.568 109.516L165.439 109.25L169.089 106.38L169.012 106.225C168.361 106.542 167.693 106.842 167.05 107.176C166.39 107.528 165.756 107.913 165.088 108.29C165.696 104.306 171 101.65 175.404 103.167V103.158Z" fill="#232323"/>
<path d="M181.479 95.8331C180.125 97.144 178.917 98.5234 177.494 99.6287C175.781 100.948 173.742 100.665 171.771 100.417L171.685 100.16L175.352 97.9922L175.301 97.8465C174.667 98.0522 174.033 98.2407 173.408 98.472C172.765 98.7033 172.139 98.9775 171.488 99.2517C172.525 95.7045 177.666 93.931 181.487 95.8502L181.479 95.8331Z" fill="#232323"/>
<path d="M160.392 98.8056C159.587 100.279 158.927 101.779 158.002 103.09C156.897 104.666 155.08 104.975 153.341 105.274L153.204 105.077L155.748 102.258L155.663 102.147C155.183 102.49 154.686 102.824 154.215 103.184C153.735 103.552 153.272 103.955 152.784 104.358C152.724 101.068 156.631 98.1887 160.392 98.8056V98.8056Z" fill="#232323"/>
<path d="M175.463 92.2347C173.527 93.8026 171.779 95.4819 169.783 96.7586C167.384 98.3008 164.728 97.6925 162.174 97.1356L162.089 96.7843C163.776 95.9789 165.464 95.1649 167.152 94.3595L167.101 94.1539C166.244 94.351 165.387 94.5309 164.539 94.7622C163.674 95.0021 162.817 95.2849 161.926 95.5591C163.699 91.018 170.665 89.2787 175.463 92.2347V92.2347Z" fill="#232323"/>
<path d="M158.825 107.34C158.011 108.762 157.342 110.21 156.426 111.478C155.32 112.995 153.547 113.261 151.842 113.535L151.705 113.338L154.232 110.63L154.155 110.519C153.675 110.844 153.195 111.161 152.724 111.504C152.244 111.855 151.79 112.241 151.311 112.618C151.311 109.405 155.166 106.672 158.816 107.331L158.825 107.34Z" fill="#232323"/>
<path d="M155.157 88.3184L156.836 83.6403L156.665 83.5803L154.377 87.8215C152.681 85.1654 154.703 80.2817 158.378 77.9512C158.456 79.562 158.55 81.1042 158.593 82.655C158.644 84.5656 157.873 86.1336 156.476 87.3931C156.116 87.7187 155.671 87.9671 155.165 88.327L155.157 88.3184Z" fill="#232323"/>
<path d="M162.766 89.4841L166.887 85.7227L166.75 85.5685L162.252 88.5759C161.96 85.0459 166.527 81.2674 171.394 80.8818C170.622 82.5183 169.911 84.1034 169.14 85.6628C168.189 87.582 166.595 88.7301 164.548 89.2527C164.017 89.3898 163.451 89.3984 162.757 89.4927L162.766 89.4841Z" fill="#232323"/>
<path d="M166.45 80.0248L169.946 76.8375L169.826 76.7089L166.013 79.2622C165.765 76.272 169.638 73.059 173.767 72.7334C173.116 74.1214 172.508 75.4666 171.857 76.7861C171.051 78.414 169.698 79.3907 167.967 79.8277C167.513 79.9391 167.033 79.9562 166.442 80.0248H166.45Z" fill="#232323"/>
<path d="M169.654 88.1047L173.75 86.3483L173.818 86.5025L170.151 88.7816C172.619 90.1525 176.877 88.079 178.762 84.6689C177.314 84.6861 175.935 84.6861 174.547 84.7289C172.842 84.7889 171.479 85.5686 170.425 86.8795C170.151 87.2222 169.954 87.6335 169.663 88.1047H169.654Z" fill="#232323"/>
<path d="M162.74 82.1328L162.877 77.5746H162.706L161.918 81.9186C159.681 80.085 160.058 75.2527 162.603 72.1768C163.126 73.5562 163.648 74.8757 164.128 76.2123C164.719 77.8659 164.488 79.451 163.623 80.9504C163.4 81.3445 163.083 81.6787 162.74 82.1413V82.1328Z" fill="#232323"/>
<path d="M157.206 70.9346L162.167 67.5245L162.039 67.336L156.795 69.8807C157.009 66.0679 162.441 62.7093 167.702 63.0178C166.64 64.6542 165.646 66.2393 164.592 67.7901C163.298 69.7008 161.422 70.6947 159.16 70.9431C158.568 71.0117 157.96 70.9431 157.206 70.9346V70.9346Z" fill="#232323"/>
<path d="M151.842 89.3724C147.772 89.7494 144.55 86.5535 143.471 83.7518C147.421 83.1949 150.831 84.5829 151.936 88.4813L149.117 86.5964L149.048 86.7077L151.842 89.3724V89.3724Z" fill="#232323"/>
<path d="M81.5509 67.2932C79.2204 62.8807 81.3024 57.757 83.9585 55.2295C86.4432 59.4192 86.4689 63.9089 82.5962 66.9848C82.8704 65.5796 83.136 64.2516 83.393 62.9235L83.2388 62.8978C82.699 64.2944 82.1678 65.691 81.5423 67.2932H81.5509Z" fill="#232323"/>
<path d="M78.7995 57.8256C73.7958 55.221 72.4506 49.1034 73.2988 45.0508C78.3025 47.3556 81.2071 51.5196 79.5792 56.866C78.9366 55.3838 78.3282 53.9786 77.7199 52.5735L77.5571 52.6506C77.9512 54.2956 78.3454 55.9407 78.7995 57.8342V57.8256Z" fill="#232323"/>
<path d="M86.1073 52.3672C81.6091 49.9939 80.4267 44.4761 81.215 40.8262C85.7132 42.9339 88.3093 46.6952 86.8099 51.5019C86.2358 50.1653 85.696 48.8972 85.1562 47.6291L85.0106 47.6977C85.3619 49.1799 85.7046 50.6622 86.1073 52.3672V52.3672Z" fill="#232323"/>
<path d="M149.349 94.7709C145.939 94.6338 143.626 91.6436 143.043 89.2103C146.376 89.1846 149.032 90.7011 149.52 94.0512L147.396 92.1834L147.327 92.2691L149.34 94.7795L149.349 94.7709Z" fill="#232323"/>
<path d="M149.683 96.81C149.34 100.88 145.639 103.493 142.691 104.067C142.828 100.083 144.791 96.9728 148.818 96.5615L146.478 99.012L146.573 99.0977L149.683 96.81V96.81Z" fill="#232323"/>
<path d="M154.232 98.1209C154.969 96.7671 155.62 95.5762 156.272 94.3852L156.083 94.2653L153.727 97.1013C152.587 94.2995 156.597 89.1245 160.067 88.9531C159.656 90.7267 159.416 92.526 158.799 94.1796C158.045 96.1759 156.357 97.3155 154.232 98.1123V98.1209Z" fill="#232323"/>
<path d="M140.284 99.8943L140.002 94.8392H140.19L141.193 99.6287C143.617 97.5295 143.069 92.1745 140.156 88.833C139.616 90.3838 139.068 91.8661 138.579 93.3569C137.971 95.2076 138.279 96.9555 139.273 98.6005C139.53 99.0289 139.89 99.3973 140.284 99.8943V99.8943Z" fill="#232323"/>
<path d="M139.496 81.1898L142.992 77.814L143.12 77.9425L140.259 81.6867C143.309 82.1323 146.847 78.3709 147.456 74.1641C145.991 74.7381 144.577 75.2779 143.18 75.852C141.458 76.5717 140.37 77.8911 139.805 79.639C139.659 80.0931 139.616 80.5901 139.496 81.1898V81.1898Z" fill="#232323"/>
<path d="M148.26 81.661L151.67 77.2228L151.841 77.3685L149.237 82.1837C152.835 82.4236 156.219 77.5141 156.142 72.3477C154.557 73.1959 153.024 73.9756 151.524 74.8238C149.673 75.8691 148.662 77.5741 148.337 79.7504C148.251 80.3159 148.294 80.9156 148.268 81.661H148.26Z" fill="#232323"/>
<path d="M141.887 67.0444L147.507 67.8326L147.482 68.0382L141.981 68.0982C143.763 71.2255 149.769 71.7739 154.079 69.2977C152.494 68.3638 150.986 67.447 149.444 66.5817C147.542 65.5107 145.545 65.4678 143.532 66.2047C143.009 66.3932 142.521 66.7102 141.887 67.0358V67.0444Z" fill="#232323"/>
<path d="M134.363 115.702C138.133 114.957 140.189 111.212 140.412 108.394C136.694 108.942 133.995 111.11 134.038 114.922L136.077 112.472L136.171 112.549L134.363 115.702Z" fill="#232323"/>
<path d="M142.579 111.47C145.964 110.202 147.292 106.423 147.069 103.784C143.71 104.864 141.543 107.271 142.159 110.801L143.676 108.222L143.77 108.282L142.579 111.478V111.47Z" fill="#232323"/>
<path d="M100.382 73.4187C103.475 70.5656 103.252 65.9046 101.847 63.1543C98.7026 65.7932 97.4174 69.3489 99.6365 72.879L100.142 69.4261L100.27 69.4432L100.382 73.4102V73.4187Z" fill="#232323"/>
<path d="M135.759 70.0608L139.392 65.3998L139.22 65.2627L135.065 69.204C134.14 65.5711 138.235 60.8159 143.247 59.5479C142.733 61.3985 142.271 63.1721 141.748 64.9371C141.097 67.1134 139.64 68.5956 137.592 69.5038C137.061 69.7437 136.47 69.8551 135.759 70.0693V70.0608Z" fill="#232323"/>
<path d="M130.148 72.3739C127.372 68.7325 128.477 63.7802 130.5 61.0898C133.378 64.5085 134.09 68.5611 131.048 71.9283L131.151 68.1327H131.005C130.731 69.4779 130.457 70.8145 130.14 72.3653L130.148 72.3739Z" fill="#232323"/>
<path d="M125.246 73.1363C122.496 70.7115 122.59 66.6503 123.755 64.2256C126.557 66.4533 127.748 69.5292 125.889 72.6565L125.375 69.6577L125.263 69.6748L125.246 73.1363Z" fill="#232323"/>
<path d="M120.844 76.3237C118.359 74.1388 118.445 70.4717 119.498 68.2783C122.026 70.2918 123.097 73.0678 121.418 75.8781L120.955 73.1792L120.852 73.1963L120.835 76.3151L120.844 76.3237Z" fill="#232323"/>
<path d="M133.961 75.2698C135.409 74.7472 136.686 74.2845 137.962 73.8304L137.902 73.6162L134.261 74.1731C135.263 71.32 141.698 70.1033 144.405 72.2796C142.923 73.3334 141.552 74.5244 139.984 75.3555C138.099 76.3494 136.077 76.0838 133.961 75.2784V75.2698Z" fill="#232323"/>
<path d="M127.809 77.0691C129.042 77.3775 130.131 77.6431 131.219 77.9087L131.27 77.7288L128.511 76.4436C130.508 74.9442 135.494 77.0519 136.359 79.7937C134.86 79.8365 133.369 80.0336 131.913 79.8794C130.156 79.6995 128.888 78.5856 127.809 77.0605V77.0691Z" fill="#232323"/>
<path d="M132.282 94.2567L134.587 91.3008L134.475 91.2151L131.836 93.7169C131.245 91.4121 133.841 88.3962 137.029 87.5908C136.703 88.7646 136.412 89.8956 136.078 91.0094C135.666 92.3889 134.741 93.3314 133.439 93.9054C133.104 94.0596 132.727 94.1282 132.273 94.2653L132.282 94.2567Z" fill="#232323"/>
<path d="M129.395 84.1805L134.638 84.6346L134.655 84.4376L129.694 83.2466C131.956 80.7876 137.5 81.5416 140.884 84.6689C139.256 85.183 137.697 85.7056 136.129 86.1683C134.193 86.7424 132.376 86.3654 130.705 85.2772C130.268 84.9945 129.9 84.6089 129.395 84.1805V84.1805Z" fill="#232323"/>
<path d="M125.589 96.6293C124.441 92.4139 127.2 88.4298 129.959 86.7676C131.278 90.8288 130.447 94.6673 126.549 96.5608L128.005 93.245L127.877 93.1936C127.149 94.2817 126.429 95.3698 125.589 96.6293V96.6293Z" fill="#232323"/>
<path d="M137.901 102.628L135.614 100.177L135.476 100.289L137.019 102.756C134.637 102.919 131.749 98.635 132.486 95.9961C133.711 96.7415 135.005 97.367 136.093 98.2409C137.404 99.2948 137.841 100.846 137.91 102.628H137.901Z" fill="#232323"/>
<path d="M134.758 105.378L131.751 103.733L131.656 103.887L133.935 105.78C131.682 106.697 127.509 103.476 127.381 100.674C128.803 101.008 130.26 101.196 131.588 101.693C133.199 102.293 134.115 103.664 134.758 105.369V105.378Z" fill="#232323"/>
<path d="M124.365 103.955L125.804 106.722L125.958 106.654L125.196 104.058C127.372 104.512 128.888 109.07 127.569 111.255C126.661 110.278 125.658 109.396 124.896 108.342C123.988 107.065 123.988 105.566 124.365 103.946V103.955Z" fill="#232323"/>
<path d="M106.946 49.472L107.392 43.9114L107.186 43.8942L105.952 49.1635C103.33 46.7816 104.093 40.904 107.383 37.2969C107.94 39.019 108.497 40.6641 109.002 42.3263C109.619 44.3826 109.242 46.3018 108.094 48.084C107.794 48.5466 107.392 48.9408 106.946 49.4805V49.472Z" fill="#232323"/>
<path d="M103.27 56.8745C99.2172 54.6211 98.2405 49.5746 99.0201 46.2588C103.081 48.2637 105.386 51.7423 103.93 56.0948L102.49 52.5305L102.353 52.5905C102.644 53.9528 102.936 55.3066 103.27 56.8745Z" fill="#232323"/>
<path d="M96.5098 53.9786C92.0973 53.2332 89.5954 48.9578 89.2441 45.6934C93.5795 46.216 96.784 48.6407 96.8611 53.0704L94.4106 50.2944L94.3078 50.3886C95.0104 51.5282 95.7044 52.6763 96.5098 53.9872V53.9786Z" fill="#232323"/>
<path d="M90.5458 63.5232C87.23 60.3359 87.5727 55.2465 89.1664 52.2734C92.5507 55.2208 93.8702 59.145 91.3769 62.9491L90.9057 59.1707L90.76 59.1878C90.6915 60.5672 90.6229 61.9381 90.5458 63.5232Z" fill="#232323"/>
<path d="M97.7263 58.999C98.7973 62.8546 96.2869 66.5131 93.7764 68.0468C92.5512 64.3369 93.2881 60.8154 96.8523 59.0676L95.5329 62.1092L95.6528 62.1606L97.7348 59.0076L97.7263 58.999Z" fill="#232323"/>
<path d="M108.883 54.2782C109.799 53.0444 110.613 51.9563 111.427 50.8682L111.256 50.7225L108.523 53.1901C107.794 50.2599 112.49 45.7017 115.951 46.0273C115.291 47.7237 114.803 49.4716 113.955 51.0224C112.927 52.8902 111.093 53.7813 108.883 54.2697V54.2782Z" fill="#232323"/>
<path d="M125.272 53.2238C124.098 52.6155 123.061 52.0757 122.025 51.5359L121.931 51.7073L124.424 53.7036C122.068 54.7918 117.527 51.4074 117.27 48.3486C118.795 48.6571 120.337 48.8113 121.768 49.3082C123.498 49.908 124.518 51.3731 125.272 53.2238Z" fill="#232323"/>
<path d="M125.11 47.6296C125.615 46.4643 126.061 45.4362 126.506 44.4166L126.344 44.3309L124.622 46.8328C123.482 44.6222 126.378 40.0726 129.214 39.6699C129.008 41.1522 128.948 42.6516 128.563 44.0567C128.1 45.7532 126.789 46.8156 125.11 47.6296V47.6296Z" fill="#232323"/>
<path d="M127.962 51.8879C129.273 50.7313 130.43 49.7031 131.587 48.6835L131.432 48.4865L127.817 50.6113C127.68 47.1756 133.977 43.1829 137.756 44.3396C136.625 46.0703 135.682 47.9124 134.371 49.4461C132.795 51.2968 130.541 51.8537 127.962 51.8965V51.8879Z" fill="#232323"/>
<path d="M118.709 47.5349C119.335 45.8898 119.883 44.4333 120.431 42.9767L120.2 42.8739L117.981 46.4639C116.242 43.4651 119.96 36.9534 123.876 36.208C123.687 38.2815 123.713 40.3635 123.267 42.3427C122.736 44.7246 120.997 46.2925 118.718 47.5349H118.709Z" fill="#232323"/>
<path d="M112.9 44.1247C113.046 42.8223 113.166 41.6657 113.294 40.5176L113.106 40.4833L112.172 43.4821C110.364 41.64 111.838 36.2507 114.528 34.9912C114.777 36.5249 115.179 38.0243 115.231 39.5322C115.291 41.3487 114.323 42.8052 112.909 44.1247H112.9Z" fill="#232323"/>
<path d="M108.736 61.0554C109.893 60.1129 110.912 59.2818 111.923 58.4507L111.795 58.2708L108.65 59.9587C108.65 57.0284 114.134 53.8411 117.313 54.955C116.293 56.3944 115.428 57.928 114.262 59.1875C112.857 60.7041 110.921 61.1153 108.728 61.0554H108.736Z" fill="#232323"/>
<path d="M109.294 67.7041C110.279 66.8044 111.145 66.0076 112.019 65.2108L111.899 65.0566L109.165 66.7187C109.02 64.1055 113.758 60.9782 116.662 61.8179C115.823 63.1545 115.129 64.5682 114.152 65.7506C112.978 67.1814 111.265 67.6355 109.302 67.6955L109.294 67.7041Z" fill="#232323"/>
<path d="M111.134 74.1819L113.293 71.8856L113.182 71.7657L110.963 73.3593C110.672 71.1402 114.502 68.1757 117.029 68.6984C116.404 69.8893 115.898 71.1402 115.144 72.2112C114.236 73.505 112.805 74.0019 111.143 74.1819H111.134Z" fill="#232323"/>
<path d="M113.518 84.1032C113.998 82.621 114.418 81.3101 114.846 79.9992L114.632 79.9135L112.824 83.1779C111.162 80.6075 114.178 74.6956 117.605 73.873C117.528 75.7152 117.631 77.5487 117.322 79.3223C116.954 81.4471 115.48 82.9037 113.518 84.1032Z" fill="#232323"/>
<path d="M74.6271 72.0914L72.0652 68.5528L71.9367 68.6471L73.8817 72.4084C71.1142 72.3227 68.5695 68.4414 68.698 64.6201C69.9061 65.3655 71.0714 66.051 72.2195 66.7878C73.6332 67.696 74.3872 69.0326 74.6099 70.6691C74.6699 71.0975 74.6271 71.5345 74.6356 72.0828L74.6271 72.0914Z" fill="#232323"/>
<path d="M75.6902 77.0949C72.3743 78.9627 68.4331 77.4804 66.4453 75.5098C69.5898 73.5306 73.0084 73.4107 75.4331 76.2981L72.3229 75.7754L72.3058 75.8954L75.6902 77.0949V77.0949Z" fill="#232323"/>
<path d="M77.7975 82.8956C74.2075 85.0976 69.7693 83.6153 67.4902 81.5161C70.8917 79.1942 74.6702 78.9286 77.4719 82.0302L74.0105 81.5761L73.9933 81.7046L77.7889 82.8956H77.7975Z" fill="#232323"/>
<path d="M85.0285 88.619C81.7984 91.9177 76.6918 91.5236 73.7188 89.8957C76.709 86.5285 80.6588 85.2347 84.4544 87.7879L80.6502 88.2249L80.6674 88.3706C82.0468 88.4477 83.4263 88.5334 85.0199 88.6276L85.0285 88.619Z" fill="#232323"/>
<path d="M66.7096 102.645C65.1845 97.5981 68.3889 92.6973 71.6533 90.6152C73.384 95.4647 72.5015 100.134 67.8577 102.542C68.4317 101.145 68.9715 99.8172 69.5113 98.4892L69.3571 98.4292C68.5174 99.7658 67.6778 101.102 66.7096 102.645V102.645Z" fill="#232323"/>
<path d="M57.886 104.255C53.8934 102.49 52.5482 97.8459 53.0023 94.6758C56.9778 96.2094 59.4283 99.2682 58.4344 103.475L56.7808 100.262L56.6608 100.331C57.0464 101.582 57.4319 102.824 57.8775 104.263L57.886 104.255Z" fill="#232323"/>
<path d="M52.1183 104.127C47.7915 104.666 44.2443 101.376 43.002 98.4288C47.2003 97.692 50.8759 99.0543 52.1954 103.176L49.1195 101.273L49.0509 101.393C50.0277 102.267 50.9959 103.133 52.1183 104.135V104.127Z" fill="#232323"/>
<path d="M49.3686 107.768C46.3099 110.878 41.4861 110.493 38.6758 108.95C41.5118 105.772 45.2474 104.564 48.8288 106.98L45.2389 107.391L45.256 107.528C46.5583 107.605 47.8607 107.682 49.3686 107.777V107.768Z" fill="#232323"/>
<path d="M50.3275 95.61C46.2063 97.0323 42.0594 94.539 40.2344 91.9086C44.1928 90.3236 48.0655 90.9062 50.2075 94.659L46.806 93.4252L46.7632 93.5537C47.8942 94.2049 49.0251 94.856 50.336 95.61H50.3275Z" fill="#232323"/>
<path d="M59.0681 72.9901C54.7584 72.3475 52.2308 68.2178 51.8281 65.0391C56.0693 65.4675 59.2394 67.7722 59.3936 72.0905L56.9518 69.4259L56.849 69.5201C57.5515 70.6168 58.2541 71.7221 59.0681 72.9901Z" fill="#232323"/>
<path d="M62.6492 98.6002C59.479 96.4239 59.0592 92.1742 59.9674 89.501C63.1633 91.4716 64.7912 94.5218 63.2575 98.009L62.3493 94.9502L62.2379 94.9845L62.6578 98.5916L62.6492 98.6002Z" fill="#232323"/>
<path d="M70.9431 87.9757C66.4535 90.2719 61.3041 88.0956 58.7852 85.3796C63.052 82.9291 67.5845 82.9634 70.6432 86.9132C69.2295 86.6134 67.8929 86.3306 66.5563 86.0564L66.522 86.2107C67.9272 86.7762 69.3238 87.3331 70.9431 87.9842V87.9757Z" fill="#232323"/>
<path d="M57.7901 92.6886C57.0533 87.9763 52.5294 85.2431 49.0508 84.8232C49.5477 89.45 52.0838 92.9028 56.8048 93.0485L53.8746 90.3924L53.9774 90.281C55.1855 91.0436 56.3935 91.8061 57.7901 92.6801V92.6886Z" fill="#232323"/>
<path d="M57.8759 82.7666C55.3483 77.6258 49.1793 76.1179 45.041 76.8804C47.2687 82.0126 51.4156 85.0628 56.882 83.5377C55.3911 82.8523 53.986 82.2011 52.5723 81.5414L52.6494 81.3786C54.3116 81.8156 55.9652 82.2611 57.8759 82.7666V82.7666Z" fill="#232323"/>
<path d="M66.0762 78.414C63.3773 74.4813 58.1166 73.9673 54.8008 75.0897C57.2427 79.0566 61.0297 81.0701 65.348 79.1595L61.5609 78.0285L61.6038 77.8828C63.026 78.0456 64.4398 78.217 66.0762 78.4055V78.414Z" fill="#232323"/>
<path d="M68.339 71.7222C67.5336 67.0184 62.9754 64.3538 59.4883 63.9854C60.0452 68.6035 62.6413 72.0221 67.3623 72.0992L64.3977 69.486L64.5005 69.3746C65.7172 70.12 66.9424 70.8654 68.3476 71.7222H68.339Z" fill="#232323"/>
<path d="M66.7281 64.6967C62.3156 62.8974 60.6962 57.8595 61.0904 54.3809C65.4772 55.9317 68.2532 59.1961 67.3021 63.8228L65.4 60.3613L65.2715 60.4384C65.7342 61.7922 66.1969 63.1373 66.7281 64.6967Z" fill="#232323"/>
<path d="M78.422 73.4703C78.3363 72.2108 78.2677 71.0969 78.1906 69.9917H78.0107L77.6251 72.9905C75.6031 71.551 76.1 66.2046 78.4305 64.5596C78.9189 65.9647 79.5529 67.3185 79.8528 68.7407C80.2127 70.4543 79.5358 71.988 78.422 73.4703V73.4703Z" fill="#232323"/>
<path d="M75.2609 64.6193C74.4726 63.0771 73.7701 61.7148 73.076 60.3611L72.8447 60.4639L73.9928 64.448C70.6599 63.7368 68.3722 56.7282 70.4114 53.3867C71.7994 54.8947 73.3331 56.2484 74.4812 57.8763C75.8692 59.8384 75.8606 62.1346 75.2609 64.6193V64.6193Z" fill="#232323"/>
<path d="M96.7933 46.4303C96.4592 45.0252 96.1679 43.7914 95.868 42.5576L95.6624 42.5919L95.7995 46.0362C93.2548 44.8024 92.7921 38.6849 95.0969 36.3887C95.9194 37.8795 96.8876 39.2761 97.4959 40.8269C98.2242 42.6861 97.7615 44.5454 96.7933 46.4303V46.4303Z" fill="#232323"/>
<path d="M80.8728 77.2314L82.2265 74.5154L82.0894 74.4382L80.4872 76.5203C79.5961 74.5496 82.3208 70.7454 84.7969 70.5312C84.5484 71.8079 84.4285 73.1016 84.0344 74.3012C83.5545 75.7492 82.3722 76.6059 80.8813 77.2314H80.8728Z" fill="#232323"/>
<path d="M86.4246 71.6455L87.1271 68.6038L87.2899 68.6295L87.1957 71.337C89.1835 70.3603 89.5176 65.5622 87.7012 63.7715C87.0672 64.9453 86.3132 66.0506 85.842 67.2587C85.2765 68.7238 85.6535 70.1718 86.4246 71.6455Z" fill="#232323"/>
<path d="M87.8555 76.2725L89.9032 73.9163L90.0317 74.0191L88.6866 76.3667C90.9057 76.4353 93.4418 72.3483 92.6707 69.915C91.5568 70.6519 90.3745 71.2773 89.3977 72.1256C88.2153 73.1537 87.864 74.6103 87.8555 76.2725V76.2725Z" fill="#232323"/>
<path d="M95.7811 78.551V74.5669H95.9267L96.5008 78.3796C98.4971 76.8374 98.2915 72.6048 96.1581 69.8545C95.6611 71.0454 95.1728 72.185 94.7187 73.3417C94.1617 74.7639 94.3245 76.1605 95.0357 77.4886C95.2242 77.8313 95.4898 78.1397 95.7725 78.551H95.7811Z" fill="#232323"/>
<path d="M97.9055 81.9184C100.853 81.3015 102.438 78.3541 102.584 76.1436C99.6791 76.6062 97.5799 78.3198 97.6399 81.31L99.2164 79.3737L99.285 79.4337L97.897 81.9184H97.9055Z" fill="#232323"/>
<path d="M105.618 86.8112C104.213 84.0951 100.897 83.3497 98.6953 83.8038C99.9377 86.5199 102.191 88.1049 105.096 87.231L102.774 86.2114L102.817 86.1257L105.627 86.8112H105.618Z" fill="#232323"/>
<path d="M105.146 83.067C107.511 80.3681 106.894 76.4354 105.455 74.2334C103.021 76.7524 102.259 79.8883 104.461 82.6814L104.572 79.7083H104.684L105.138 83.067H105.146Z" fill="#232323"/>
<path d="M101.581 89.1328C97.9226 91.8746 97.6484 96.9382 98.8565 100.074C102.558 97.5723 104.34 93.8623 102.327 89.8011L101.401 93.4768L101.264 93.4425C101.367 92.0802 101.461 90.7093 101.581 89.1328Z" fill="#232323"/>
<path d="M107.511 105.814C110.227 102.027 108.942 97.0148 106.8 94.333C103.973 97.8973 103.382 102.053 106.578 105.386L106.355 101.53H106.5C106.826 102.884 107.143 104.246 107.511 105.806V105.814Z" fill="#232323"/>
<path d="M83.2721 82.3554C86.3052 82.7324 88.7813 80.419 89.6467 78.3542C86.7079 77.8486 84.1375 78.8083 83.2207 81.6871L85.3713 80.3505L85.4227 80.4362L83.2721 82.364V82.3554Z" fill="#232323"/>
<path d="M59.7093 110.347C58.1157 107.04 54.1658 106.046 51.5098 106.518C52.9149 109.816 55.5624 111.787 59.0667 110.836L56.3164 109.542L56.3678 109.439L59.7093 110.347V110.347Z" fill="#232323"/>
<path d="M63.8571 110.364C66.1019 107.083 64.9024 102.833 63.026 100.597C60.687 103.698 60.2586 107.245 63.0517 110.03L62.7861 106.748H62.9146L63.8657 110.373L63.8571 110.364Z" fill="#232323"/>
<path d="M67.0879 112.275C71.706 111.152 74.0537 106.423 74.1736 102.936C69.6154 103.809 66.3939 106.628 66.6423 111.332L69.0328 108.196L69.1528 108.291C68.493 109.559 67.8419 110.818 67.0879 112.275V112.275Z" fill="#232323"/>
<path d="M61.6896 114.46C60.1474 117.793 56.2232 118.855 53.5586 118.435C54.9038 115.111 57.5084 113.097 61.0384 113.989L58.3138 115.334L58.3652 115.437L61.6896 114.468V114.46Z" fill="#232323"/>
<path d="M53.5662 113.277C50.9359 115.831 46.8832 115.419 44.5527 114.066C46.9946 111.444 50.1648 110.501 53.1293 112.6L50.0962 112.875V112.986L53.5577 113.277H53.5662Z" fill="#232323"/>
<path d="M72.1854 121.614C68.0642 124.099 63.0177 122.359 60.4473 119.943C64.3457 117.33 68.664 117.064 71.8341 120.62L67.8843 120.072L67.8671 120.217C69.238 120.663 70.6089 121.1 72.1854 121.614V121.614Z" fill="#232323"/>
<path d="M89.4664 130.713C86.3391 134.294 81.0612 134.191 77.9082 132.692C80.787 129.05 84.7712 127.491 88.8324 129.882L84.9511 130.558L84.9768 130.704C86.3991 130.704 87.8299 130.704 89.4664 130.704V130.713Z" fill="#232323"/>
<path d="M80.2828 122.325C79.2718 127.337 74.2852 130.053 70.541 130.336C71.295 125.401 74.1824 121.82 79.2461 121.897C78.1151 122.831 77.0441 123.713 75.9817 124.596L76.0845 124.716C77.4125 123.962 78.7491 123.199 80.2828 122.325Z" fill="#232323"/>
<path d="M85.2521 117.407C85.1835 114.717 82.8445 112.858 80.9338 112.369C80.8738 115 82.0477 117.116 84.678 117.536L83.23 115.839L83.2986 115.788L85.2607 117.407H85.2521Z" fill="#232323"/>
<path d="M77.8315 105.78C74.4814 107.802 73.8131 112.086 74.5843 114.854C77.9429 113.037 79.7764 110.039 78.4141 106.414L77.3089 109.465L77.1975 109.422L77.8315 105.789V105.78Z" fill="#232323"/>
<path d="M93.7769 87.4102C93.4427 86.0479 93.1514 84.8398 92.8515 83.6403L93.0486 83.5803L94.4623 86.6305C96.1245 84.4286 93.8026 78.9194 90.7781 77.9512C90.7267 79.6134 90.5125 81.2584 90.6753 82.8692C90.8723 84.8056 92.0976 86.2107 93.7769 87.4102V87.4102Z" fill="#232323"/>
<path d="M164.9 100.229C164.823 101.634 164.866 103.005 164.634 104.333C164.369 105.926 163.101 106.809 161.892 107.674L161.713 107.571L162.621 104.521L162.518 104.461C162.278 104.898 162.021 105.326 161.798 105.772C161.567 106.226 161.361 106.697 161.138 107.177C159.905 104.71 161.824 101.12 164.891 100.229H164.9Z" fill="#232323"/>
<path d="M78.7058 103.586C78.1232 102.361 77.6091 101.282 77.095 100.194L76.9151 100.271L77.7205 103.424C75.1329 102.79 73.505 97.2462 75.1843 94.6758C76.2382 95.8839 77.4034 96.9891 78.2602 98.2915C79.297 99.8594 79.237 101.659 78.7058 103.586V103.586Z" fill="#232323"/>
<path d="M87.7866 92.3283C86.5356 92.8509 85.4389 93.3222 84.3422 93.7848L84.4365 93.9733L87.7095 93.3222C87.2896 95.9097 81.5491 97.272 78.6445 95.4385C79.8269 94.436 80.8808 93.3136 82.1831 92.5082C83.751 91.54 85.6788 91.6943 87.7866 92.3283Z" fill="#232323"/>
<path d="M84.7023 107.228C84.231 105.968 83.8112 104.855 83.3914 103.741L83.2029 103.801L83.7341 106.979C81.2322 106.131 80.0841 100.519 81.952 98.1201C82.8859 99.4053 83.9483 100.588 84.6937 101.95C85.5848 103.586 85.3791 105.36 84.6937 107.219L84.7023 107.228Z" fill="#232323"/>
<path d="M88.1562 105.078C88.2505 103.801 88.3362 102.67 88.4218 101.54L88.2334 101.514L87.4194 104.478C85.5944 102.748 86.8453 97.4355 89.4243 96.1074C89.7242 97.5897 90.1612 99.0462 90.264 100.52C90.3839 102.294 89.4843 103.741 88.1562 105.078V105.078Z" fill="#232323"/>
<path d="M90.3414 114.348C90.667 112.883 90.9583 111.581 91.241 110.287L91.0268 110.227L89.5789 113.526C87.7539 111.204 90.1101 105.249 93.3231 104.152C93.4173 105.926 93.6829 107.682 93.5544 109.413C93.3916 111.495 92.1064 113.02 90.3328 114.348H90.3414Z" fill="#232323"/>
<path d="M97.1008 119.224L95.2073 117.287L95.0959 117.382L96.3811 119.344C94.4619 119.515 92.0629 116.114 92.6026 113.972C93.6051 114.554 94.6589 115.026 95.55 115.72C96.6296 116.551 97.0066 117.793 97.1008 119.224V119.224Z" fill="#232323"/>
<path d="M101.882 115.299C100.974 114.297 100.168 113.414 99.3631 112.532L99.2089 112.652L100.888 115.419C98.2321 115.565 95.0877 110.75 95.9445 107.819C97.2982 108.668 98.729 109.379 99.9286 110.373C101.368 111.572 101.831 113.303 101.891 115.291L101.882 115.299Z" fill="#232323"/>
<path d="M98.0254 124.39C98.668 123.208 99.2421 122.171 99.8075 121.126L99.6448 121.023L97.5884 123.499C96.5945 121.048 100.09 116.533 103.132 116.379C102.772 117.921 102.566 119.498 102.018 120.946C101.367 122.694 99.8847 123.687 98.034 124.381L98.0254 124.39Z" fill="#232323"/>
<path d="M103.716 135.563C103.279 134.097 102.894 132.795 102.5 131.501L102.285 131.553L102.637 135.211C99.8521 134.055 98.9953 127.586 101.317 125.007C102.277 126.541 103.391 127.971 104.128 129.574C105.019 131.501 104.633 133.506 103.716 135.563V135.563Z" fill="#232323"/>
<path d="M117.904 114.708C118.718 115.779 119.429 116.721 120.149 117.673L120.004 117.801L117.604 115.659C116.979 118.229 121.109 122.179 124.133 121.879C123.551 120.406 123.114 118.872 122.36 117.527C121.452 115.899 119.841 115.136 117.913 114.717L117.904 114.708Z" fill="#232323"/>
<path d="M125.932 117.639L124.493 114.82L124.63 114.725L126.292 116.867C127.089 114.751 124.27 110.836 121.828 110.707C122.119 112.044 122.282 113.406 122.719 114.657C123.25 116.165 124.441 117.03 125.932 117.63V117.639Z" fill="#232323"/>
<path d="M115.564 129.736C115.693 128.074 115.804 126.6 115.916 125.127H116.156L116.618 129.102C119.309 127.226 118.735 120.14 115.676 117.93C115.008 119.789 114.151 121.563 113.731 123.447C113.234 125.709 114.099 127.749 115.556 129.736H115.564Z" fill="#232323"/>
<path d="M124.878 89.2098C128.066 86.0996 127.706 81.1816 126.138 78.3027C122.882 81.1816 121.623 84.9858 124.073 88.6529L124.51 84.9858L124.647 85.0029C124.724 86.3309 124.793 87.6675 124.878 89.2012V89.2098Z" fill="#232323"/>
<path d="M119.173 66.1451C122.951 63.7889 123.645 58.9052 122.729 55.7607C118.933 57.877 116.894 61.3299 118.496 65.434L119.704 61.9468L119.833 61.9982C119.618 63.3177 119.413 64.6286 119.164 66.1451H119.173Z" fill="#232323"/>
<path d="M125.589 62.5463C129.804 61.1154 131.595 56.5144 131.423 53.25C127.242 54.4409 124.475 57.3369 125.092 61.7066L127.062 58.5878L127.182 58.665C126.677 59.8988 126.171 61.1325 125.58 62.5548L125.589 62.5463Z" fill="#232323"/>
<path d="M134.886 62.949C139.152 59.7274 139.461 53.807 138.03 50.1484C133.712 53.0873 131.647 57.4227 134.003 62.1693C134.371 60.6785 134.723 59.2733 135.074 57.8682L135.237 57.911C135.125 59.5047 135.014 61.1069 134.886 62.949Z" fill="#232323"/>
<path d="M142.366 56.8402C146.65 53.4301 146.813 47.364 145.254 43.6455C140.91 46.7643 138.905 51.2624 141.45 56.0605C141.792 54.5268 142.109 53.0789 142.435 51.6309L142.598 51.6737C142.521 53.3102 142.452 54.9467 142.366 56.8402Z" fill="#232323"/>
<path d="M151.147 60.9784C155.268 59.7018 157.127 55.2893 157.05 52.1191C152.963 53.1644 150.204 55.8976 150.693 60.1473L152.689 57.1743L152.8 57.2514C152.278 58.4337 151.755 59.6161 151.147 60.9784Z" fill="#232323"/>
<path d="M121.999 91.5912C122.848 88.9266 121.177 86.3048 119.455 85.1738C118.504 87.7357 118.941 90.2204 121.382 91.5227L120.534 89.3636L120.62 89.3293L121.999 91.5827V91.5912Z" fill="#232323"/>
<path d="M120.852 96.3128C121.04 93.5196 118.795 91.369 116.859 90.6836C116.542 93.3996 117.553 95.7044 120.243 96.3899L118.907 94.4963L118.975 94.4449L120.852 96.3128V96.3128Z" fill="#232323"/>
<path d="M119.531 105.24C121.331 102.49 120.277 99.0029 118.692 97.1865C116.807 99.7826 116.507 102.721 118.855 104.975L118.58 102.267H118.683L119.523 105.24H119.531Z" fill="#232323"/>
<path d="M106.115 87.5135C106.681 87.9247 107.255 88.4045 107.82 88.9786C110.905 92.1573 111.582 96.1671 111.753 98.2149C111.616 96.1157 111.487 94.0165 111.35 91.9088C110.845 91.0092 109.851 89.5526 108.086 88.4474C107.383 88.0018 106.706 87.7105 106.124 87.5049L106.115 87.5135Z" fill="#232323"/>
<path d="M108.78 89.6892C107.855 89.3722 106.492 89.038 104.847 89.0809C104.05 89.1066 103.348 89.2094 102.748 89.3465C103.605 89.2608 104.941 89.2351 106.492 89.6464C107.752 89.9805 108.728 90.4946 109.388 90.9144" fill="#232323"/>
<path d="M149.725 64.8685L154.48 63.8917L154.446 63.7118L149.75 63.9603C151.104 61.1928 156.202 60.4046 160.015 62.281C158.712 63.1635 157.47 64.0288 156.202 64.8513C154.634 65.8624 152.938 66.0166 151.173 65.4854C150.71 65.3483 150.282 65.1084 149.725 64.8599V64.8685Z" fill="#232323"/>
<path d="M146.222 63.3599L147.25 58.9902L147.087 58.9474L145.468 62.9829C143.677 60.7724 144.988 56.1885 148.047 53.7295C148.278 55.1689 148.527 56.5398 148.724 57.9192C148.963 59.6243 148.432 61.1065 147.31 62.3832C147.019 62.7173 146.65 62.9829 146.23 63.3513L146.222 63.3599Z" fill="#232323"/>
<path d="M154.053 177.331C155.998 178.899 158.799 180.69 162.458 181.726C163.306 181.966 164.129 182.138 164.908 182.266L163.915 182.832C163.272 182.703 162.347 182.523 161.233 182.283C158.088 181.606 156.486 181.255 154.995 180.638C154.036 180.244 152.708 179.593 151.225 178.505C149.366 178.256 147.884 177.922 146.864 177.648C143.985 176.894 142.529 176.551 141.526 176.114C141.141 175.952 140.216 175.532 138.982 175.566C138.279 175.583 137.628 175.763 136.908 176.029C137.063 176.26 137.174 176.517 137.371 176.697C139.607 178.796 141.878 180.852 144.088 182.969C145.459 184.297 146.899 184.862 148.938 184.631C150.574 184.451 152.331 184.819 153.976 185.188C155.381 185.496 156.769 185.83 158.183 185.95C157.874 186.139 157.557 186.319 157.249 186.499C155.912 186.404 154.567 186.293 153.23 186.216C150.866 186.087 148.501 185.985 145.853 185.865C146.582 187.852 147.618 189.018 149.178 189.875C149.426 190.012 149.666 190.149 149.906 190.303C148.655 190.886 147.396 191.434 146.102 191.957C145.408 188.615 143.617 185.668 141.184 182.977C137.217 178.608 132.059 177.16 126.892 178.95C128.212 180.912 129.24 182.977 132.085 183.183C133.558 183.286 135.023 183.568 136.488 183.774C136.48 183.92 136.463 184.065 136.454 184.203H131.485C133.635 187.99 135.349 191.837 138.236 194.784C137.825 194.912 137.414 195.041 136.994 195.161C135.76 194.227 134.689 193.147 134.055 192.145C133.858 191.819 133.627 191.502 133.49 191.16C130.816 184.708 125.461 181.307 118.933 179.267C117.459 178.805 115.977 178.376 114.22 177.845C114.751 180.304 115.874 182.12 117.639 183.509C118.873 184.485 120.252 185.333 121.64 186.079C125.179 187.972 128.143 190.414 130.062 193.91C130.577 194.853 131.185 195.718 131.862 196.506C130.662 196.797 129.454 197.054 128.229 197.286C127.929 196.241 127.689 195.178 127.304 194.167C126.25 191.442 123.902 190.217 120.972 189.429C121.315 192.599 121.863 195.521 123.739 198.04C123.217 198.117 122.685 198.194 122.137 198.263C121.82 197.954 121.469 197.731 121.118 197.671C120.381 197.551 119.961 197.971 119.644 198.537C119.233 198.58 118.83 198.622 118.41 198.648C118.479 197.697 118.547 196.746 118.539 195.795C118.539 194.021 118.461 192.214 118.136 190.466C117.819 188.701 116.714 187.313 114.889 186.13C113.381 190.586 113.946 194.775 114.991 198.888C114.632 198.914 114.263 198.922 113.903 198.931C112.944 196.103 112.412 193.147 111.993 190.132C111.607 193.062 111.436 196.035 110.793 198.905C110.785 198.939 110.776 198.974 110.776 199.008C110.536 199.017 110.296 199.017 110.056 199.017C109.611 199.017 109.174 199.017 108.745 198.999C109.097 194.698 109.405 190.38 109.628 186.062C109.705 184.434 109.439 182.772 109.114 181.161C108.805 179.67 108.017 179.344 106.518 179.773C104.538 180.347 103.056 182.42 103.253 184.425C103.673 188.709 104.067 193.019 102.602 197.174C102.422 197.68 102.225 198.177 102.019 198.674C101.54 198.64 101.068 198.597 100.597 198.554C101.54 194.544 102.002 190.483 100.64 186.156C98.6951 187.261 97.487 188.752 97.3157 190.603C97.0843 193.096 97.1357 195.624 97.1357 198.143C96.3132 198.04 95.4907 197.92 94.6853 197.783C94.6853 197.783 94.6853 197.774 94.6767 197.774C94.5482 197.706 94.4283 197.663 94.2997 197.646C94.2226 197.637 94.1284 197.646 94.0341 197.68H94.0256C93.4001 197.569 92.7832 197.466 92.1663 197.337C93.6143 194.998 94.5482 191.537 94.3083 189.549C90.9411 189.797 88.5849 191.571 87.7367 194.638C87.5824 195.187 87.4539 195.744 87.3425 196.301C86.3401 196.061 85.3548 195.795 84.3694 195.521C84.6093 195.178 84.8321 194.827 85.0377 194.458C87.154 190.62 90.2899 187.852 94.2569 185.856C97.3242 184.314 99.8861 182.275 100.983 178.933C101.068 178.676 101.12 178.411 101.248 177.854C93.9827 179.979 86.957 181.941 83.1528 188.923C82.4502 190.217 81.7733 191.52 80.968 192.753C80.6338 193.276 80.2482 193.73 79.8199 194.124C79.3058 193.961 78.8003 193.782 78.2947 193.61C80.5396 190.843 82.0732 187.527 83.9239 184.228H79.023C81.3964 182.772 84.6008 183.997 86.58 181.658C87.274 180.827 87.8738 179.927 88.6277 178.916C85.2948 177.854 82.2789 177.948 79.3143 179.242C76.0842 180.664 73.8822 183.132 71.963 185.933C71.0377 187.287 70.3351 188.692 69.8639 190.149C69.0585 189.772 68.2445 189.386 67.4563 188.975C68.3902 188.238 69.1527 187.313 69.4783 185.89C67.0364 186.002 64.6802 186.079 62.3497 186.216C61.8442 185.925 61.3387 185.616 60.8418 185.308C61.2787 185.205 61.7243 185.102 62.1527 185.008C63.7806 184.648 65.5285 184.639 67.2078 184.691C68.4587 184.734 69.5211 184.537 70.4379 183.723C71.012 183.209 71.6289 182.729 72.1429 182.163C74.0536 180.03 75.93 177.871 77.8235 175.72C76.9581 175.66 76.0842 175.532 75.3645 175.797C72.2715 176.937 69.1784 178.102 66.291 179.619C64.1062 180.758 61.9727 181.718 59.4966 182.026C58.4941 182.146 57.4917 182.309 56.4892 182.497C56.0608 182.206 55.6496 181.906 55.2297 181.606C55.9495 181.349 56.6949 181.169 57.4574 181.032C58.6998 180.801 59.9678 180.681 61.2102 180.441C62.0499 180.278 62.6496 179.996 63.2408 179.439C64.149 178.582 64.3803 177.46 64.4489 176.92C61.5015 176.191 59.2139 176.303 57.6802 176.517C54.0217 177.048 51.7426 178.659 49.1208 177.579C48.0669 177.142 47.3643 176.448 46.9702 175.977C47.0816 175.763 47.193 175.446 47.1244 175.095C47.0473 174.709 46.7732 174.469 46.7132 174.409C46.3619 174.067 46.2505 172.936 47.1587 169.62C47.9384 170.597 48.9751 171.668 50.3289 172.644C51.2542 173.313 52.1281 173.938 53.4219 174.341C54.5786 174.701 55.264 174.632 57.8773 174.641C60.5333 174.658 60.739 174.718 62.0756 174.726C66.6423 174.769 68.2102 173.887 73.5309 173.261C76.9753 172.859 79.46 172.242 82.7844 172.824C85.9031 173.373 89.2018 173.338 92.3805 173.107C95.9191 172.841 98.4209 170.742 99.7061 167.555C100.409 165.816 101.068 163.974 101.206 162.131C101.385 159.921 101.565 157.71 101.66 155.491H113.492C113.475 158.593 113.869 161.66 114.914 164.693C117.073 170.931 120.895 173.655 127.723 173.415C130.534 173.313 133.353 172.85 136.129 172.37C138.596 171.959 140.875 172.242 142.735 173.835C143.694 174.666 144.671 175.223 145.682 175.557C147.258 176.089 148.621 175.977 151.859 175.48C154.695 175.043 155.844 174.795 157.317 174.555C163.812 173.484 165.183 174.409 168.259 173.021C169.415 172.499 171.077 171.53 172.791 169.603C172.834 171.753 172.868 173.912 172.911 176.063C172.44 176.577 171.669 177.288 170.555 177.691C167.427 178.822 164.96 176.38 160.839 176.02C159.339 175.892 157.017 175.977 154.036 177.305L154.053 177.331Z" fill="#232323"/>
<path d="M57.6971 176.526C57.7057 175.901 57.7828 175.284 57.8942 174.659C55.3153 174.736 53.3875 174.847 51.0655 173.545C50.68 173.33 50.3801 173.133 50.2002 173.005C49.2663 174.076 48.3323 175.138 47.3984 176.209C47.8097 176.715 48.5637 177.503 49.7204 177.949C52.2993 178.942 54.5013 177.297 57.6971 176.561C57.6971 176.543 57.6971 176.535 57.6971 176.518V176.526Z" fill="#232323"/>
<path d="M109.996 18.7129C59.5822 18.7129 18.7129 59.5822 18.7129 109.996C18.7129 136.069 29.6456 159.588 47.1757 176.201V169.629C32.4217 154.104 23.3739 133.104 23.3739 109.996C23.3739 62.1611 62.1611 23.3739 109.996 23.3739C157.831 23.3739 196.618 62.1611 196.618 109.996C196.618 133.104 187.562 154.104 172.817 169.629V176.201C190.347 159.588 201.279 136.069 201.279 109.996C201.279 59.5822 160.41 18.7129 109.996 18.7129V18.7129Z" fill="#232323"/>
<path fill-rule="evenodd" clip-rule="evenodd" d="M326.509 8.46319C326.196 8.7735 316.917 9.72235 312.017 9.94477L306.791 10.1824L306.705 59.1123L306.619 108.042H317.077H327.535L327.626 86.4748L327.718 64.9075L329.037 62.2211C331.644 56.908 337.043 52.6025 343.076 51.0239C346.145 50.2211 352.673 50.2326 355.379 51.0455C360.093 52.4619 363.237 54.8619 364.947 58.3493L365.86 60.2109L365.955 84.1265L366.051 108.042H376.52H386.99L386.871 83.7885C386.755 60.0804 386.735 59.4716 386.01 56.7238C383.115 45.752 376.407 39.6705 364.51 37.2292C360.77 36.4619 353.394 36.1948 349.683 36.6928C345.832 37.2093 341.151 38.7159 338.351 40.3401C333.945 42.8953 330.005 47.7007 328.201 52.7195C327.578 54.4509 327.574 54.2866 327.562 31.3938C327.551 12.3999 327.47 8.32324 327.099 8.32324C326.852 8.32324 326.586 8.38612 326.509 8.46319ZM468.304 18.1261V26.2388H478.599H488.894V18.1261V10.0134H478.599H468.304V18.1261ZM256.413 18.0088L246.54 24.2756V31.1727V38.0699H238.27H230V44.1544V50.239H238.079H246.158L246.282 69.9293C246.402 88.9583 246.431 89.7104 247.148 92.3238C248.386 96.8375 250.02 99.7601 252.922 102.649C257.465 107.17 262.99 109.263 271.349 109.63C281.886 110.092 291.519 107.071 297.869 101.312L299.976 99.4014L299.097 96.7077C298.614 95.2261 297.748 92.3407 297.172 90.2956C296.597 88.2505 296.057 86.3731 295.972 86.1233C295.879 85.8495 295.2 86.4917 294.262 87.7411C289.852 93.6171 282.69 96.7215 276.264 95.5428C271.898 94.742 269.191 92.5506 267.748 88.6494C266.992 86.6056 266.98 86.3278 266.87 68.4081L266.759 50.239H282.809H298.858V44.1544V38.0699H282.825H266.792V24.8867C266.792 17.636 266.678 11.7123 266.539 11.7228C266.4 11.7333 261.843 14.5623 256.413 18.0088ZM435.667 37.0308C432.073 38.0087 429.557 39.3656 427.461 41.457C424.361 44.5513 422.483 48.4765 421.437 54.0564L420.879 57.0283L418.601 49.3239C417.348 45.0864 416.089 40.8205 415.803 39.8446L415.284 38.0699H409.221H403.159V73.056V108.042H413.454H423.749V86.9585V65.8749L424.583 62.5795C426.274 55.903 429.441 51.4799 433.172 50.5838C436.065 49.8885 438.528 50.9529 439.625 53.3729C440.691 55.7252 440.393 62.5693 438.908 69.8133C438.55 71.5623 438.319 73.056 438.396 73.1331C438.506 73.243 455.466 69.0375 457.901 68.2966C458.914 67.9883 459.608 63.8731 459.778 57.1686C459.995 48.6117 459.081 45.1625 455.613 41.4502C452.619 38.244 448.556 36.7377 442.313 36.5187C438.851 36.397 437.658 36.4889 435.667 37.0308ZM623.91 36.8892C613.64 38.2981 604.194 42.7273 598.575 48.7696C594.758 52.8739 591.429 58.9335 590.146 64.1131C589.231 67.8081 588.903 74.8141 589.465 78.6609C591.173 90.3632 598.236 99.6218 609.565 105.012C615.725 107.943 621.744 109.312 629.817 109.619C642.209 110.091 653.159 107.359 661.034 101.83C665.745 98.5225 670.828 92.3701 672.461 87.999C673.706 84.668 674.587 85.214 663.343 82.3485L653.325 79.7957L652.923 81.927C651.663 88.6169 647.243 93.1597 640.112 95.0929C636.89 95.9667 629.739 95.8694 626.104 94.9019C616.799 92.4255 611.211 86.055 610.229 76.8034L609.981 74.4663L618.886 74.6793C650.961 75.4466 671.212 75.6808 671.602 75.2897C672.24 74.6509 672.072 66.2187 671.355 62.9151C669.97 56.5257 667.317 51.488 663.065 47.173C658.36 42.3977 652.966 39.5427 645.513 37.882C638.665 36.3561 630.525 35.9819 623.91 36.8892ZM468.304 73.056V108.042H478.599H488.894V73.056V38.0699H478.599H468.304V73.056ZM495.307 38.2082C495.307 38.2842 499.688 46.9168 505.042 57.3914C510.396 67.8663 517.453 81.6842 520.725 88.0984C523.997 94.5125 527.645 101.662 528.833 103.986L530.992 108.211L540.952 108.301C548.663 108.37 550.987 108.294 551.25 107.963C551.616 107.501 561.935 87.3608 572.945 65.6194C576.711 58.1827 579.904 51.946 580.04 51.7601C580.407 51.2605 586.781 38.4968 586.781 38.2619C586.781 38.1514 581.66 38.101 575.4 38.15L564.02 38.2389L561.529 43.8164C550.882 67.6533 547.172 75.9827 544.513 82.0138C542.833 85.8251 541.356 89.0591 541.231 89.2C541.106 89.3413 538.623 84.0934 535.712 77.538C532.802 70.9829 528.516 61.3602 526.188 56.1545C523.86 50.9489 521.097 44.7501 520.048 42.3798L518.14 38.0699H506.724C500.445 38.0699 495.307 38.1321 495.307 38.2082ZM637.243 50.4401C640.225 51.1523 643.401 52.878 645.389 54.8649C647.156 56.6318 649.477 60.7433 649.646 62.4081L649.732 63.2532L643.657 63.4763C627.25 64.0786 611.7 64.4897 611.536 64.3254C611.137 63.9258 612.595 60.5334 614.198 58.134C618.843 51.1787 627.807 48.1861 637.243 50.4401Z" fill="#232323"/>
<path fill-rule="evenodd" clip-rule="evenodd" d="M484.035 125.082C483.006 125.238 480.664 125.435 478.83 125.522L475.497 125.679V158.652V191.625H480.751H486.005L486.077 176.217L486.149 160.809L486.786 159.103C487.663 156.751 488.42 155.554 490.001 154.017C491.572 152.491 493.62 151.419 496.215 150.764C498.451 150.2 503.104 150.144 505.536 150.653C510.021 151.59 513.06 154.253 514.248 158.288C514.608 159.509 514.661 161.364 514.739 175.64L514.828 191.625H519.968H525.109L525.034 174.255C524.961 157.137 524.953 156.859 524.441 155.039C522.872 149.454 519.462 145.714 514.326 143.942C509.063 142.127 502.491 142.003 497.386 143.621C494.539 144.524 492.6 145.688 490.475 147.772C488.652 149.559 487.134 151.999 486.456 154.231C486.182 155.135 486.125 153.298 486.024 140.035L485.907 124.8L484.035 125.082ZM536.318 128.835V132.994H541.586H546.855L546.791 128.897L546.727 124.8L541.522 124.738L536.318 124.676V128.835ZM663.573 135.627C658.639 136.723 656.985 139.874 658.851 144.618C659.239 145.602 659.486 146.371 659.4 146.326C654.654 143.82 650.404 142.77 644.04 142.531C638.798 142.334 634.225 142.908 629.771 144.321C623.78 146.222 619.153 150.565 617.847 155.512C617.377 157.294 617.378 161.33 617.85 163.117C618.99 167.437 622.3 170.928 627.574 173.374L629.508 174.272L628.353 174.425C622.877 175.15 618.543 177.318 617.283 179.963C616.676 181.237 616.622 183.447 617.161 185.006C617.655 186.438 619.454 188.158 621.439 189.097C622.902 189.789 626.792 190.911 627.871 190.951C628.144 190.962 627.234 191.167 625.85 191.408C620.309 192.37 616.412 194.937 615.245 198.391C614.675 200.077 614.869 202.912 615.671 204.614C617.396 208.275 621.979 210.688 628.718 211.484C630.209 211.66 634.634 211.714 642.169 211.649C654.245 211.544 655.9 211.411 660.256 210.192C663.221 209.362 666.343 207.776 668.012 206.251C671.57 203.001 672.492 197.514 670.262 192.867C668.594 189.393 665.056 187.066 659.713 185.929C656.959 185.343 656.669 185.329 644.508 185.177C633.712 185.043 631.979 184.973 631.1 184.636C629.212 183.911 628.179 182.795 627.92 181.199C627.545 178.882 629.079 176.847 631.902 175.92C633.463 175.408 633.559 175.403 636.429 175.72C639.951 176.109 645.589 176.112 648.485 175.726C656.173 174.702 661.897 171.785 664.865 167.38C666.524 164.918 667.126 163.1 667.262 160.148C667.334 158.593 667.269 157.145 667.091 156.339C666.693 154.534 665.392 151.929 664.113 150.381C662.707 148.677 662.406 148.074 662.405 146.96C662.405 145.532 663.115 144.615 664.838 143.819C666.554 143.027 669.249 142.743 671.702 143.095C672.506 143.211 673.165 143.245 673.166 143.17C673.167 143.096 672.724 141.359 672.182 139.309L671.195 135.583L670.158 135.443C668.497 135.218 664.969 135.317 663.573 135.627ZM259.467 142.702C257.319 142.989 253.632 143.925 251.871 144.631C246.569 146.757 241.627 151.493 239.455 156.53C236.527 163.32 236.4 171.42 239.121 177.925C244.106 189.844 258.262 195.601 273.352 191.846C280.789 189.996 286.752 185.007 289.343 178.468C290.222 176.249 290.302 175.773 289.817 175.637C289.593 175.574 287.193 174.887 284.483 174.11C281.774 173.333 279.484 172.697 279.395 172.697C279.307 172.697 279.234 173.02 279.234 173.414C279.234 175.705 277.604 179.327 275.639 181.405C273.171 184.013 270.01 185.162 265.304 185.162C255.234 185.162 248.957 179.02 248.436 168.658C248.138 162.732 249.871 157.554 253.284 154.173C255.967 151.516 259.217 150.307 263.678 150.307C267.521 150.307 270.267 151.148 272.855 153.118C274.493 154.365 276.255 156.989 276.985 159.27C277.648 161.34 278.185 165.395 277.971 166.714C277.866 167.366 277.908 167.618 278.12 167.617C278.523 167.614 288.615 164.672 288.779 164.509C289.063 164.229 288.088 159.131 287.338 156.97C285.218 150.86 280.763 146.364 274.746 144.263C270.584 142.809 263.835 142.12 259.467 142.702ZM319.199 142.721C308.008 143.987 299.523 150.853 296.843 160.809C296.269 162.941 296.221 163.471 296.221 167.734C296.221 171.992 296.269 172.525 296.834 174.591C298.719 181.474 303.028 186.768 309.252 189.844C311.75 191.078 313.536 191.677 316.779 192.369C319.905 193.035 326.695 193.087 329.849 192.468C338.249 190.821 344.07 186.927 347.843 180.43C350.554 175.761 351.659 169.15 350.702 163.326C348.85 152.061 340.468 144.411 328.215 142.802C325.431 142.436 321.991 142.406 319.199 142.721ZM376.102 142.717C374.059 142.95 370.511 143.851 368.542 144.636C364.973 146.058 360.802 149.273 358.662 152.251C357.388 154.024 356.099 156.543 356.353 156.765C356.587 156.971 366.27 159.771 366.745 159.771C366.934 159.771 367.254 159.288 367.479 158.663C368.835 154.895 372.654 151.627 376.84 150.653C378.691 150.223 382.604 150.214 384.212 150.636C388.089 151.654 390.455 154.544 390.957 158.874L391.107 160.171L389.149 160.441C373.283 162.631 362.874 168.225 359.154 176.56C355.834 183.999 359.122 191.104 366.605 192.661C370.461 193.464 374.438 192.712 378.365 190.438C379.1 190.012 380.871 188.521 382.299 187.124C385.308 184.181 387.369 181.277 389.579 176.867L391.033 173.967L391.041 179.054C391.051 184.532 391.237 185.814 392.349 188.08C393.452 190.327 396.28 192.233 399.363 192.805C403.532 193.579 409.379 192.129 412.276 189.604L413.266 188.74L412.479 185.855C412.047 184.268 411.567 182.514 411.413 181.959L411.134 180.948L410.336 182.117C408.931 184.176 407.174 185.163 404.918 185.161C402.782 185.16 401.684 184.271 401.225 182.173C401.129 181.735 401.185 176.074 401.349 169.593C401.686 156.207 401.655 155.81 399.973 152.304C397.856 147.889 394.03 144.964 388.469 143.511C384.677 142.521 380.283 142.238 376.102 142.717ZM436.899 142.616C429.521 143.369 422.92 146.75 419.026 151.77C415.592 156.197 413.974 161.302 413.975 167.707C413.975 172.404 414.686 175.733 416.425 179.195C417.701 181.734 418.574 182.98 420.463 184.955C424.099 188.758 428.663 191.148 434.794 192.46C437.525 193.044 444.294 193.047 447.309 192.466C456.057 190.782 461.945 186.71 465.378 179.968C466.172 178.41 466.993 176.001 466.796 175.807C466.626 175.639 456.272 172.663 456.179 172.755C456.139 172.794 455.936 173.654 455.728 174.666C454.881 178.776 452.372 182.274 449.199 183.768C446.765 184.915 444.958 185.218 441.227 185.108C438.404 185.024 437.683 184.92 435.998 184.356C431.652 182.898 428.441 179.994 426.737 175.981C425.761 173.681 425.447 172.394 425.223 169.776C424.681 163.432 426.395 157.707 429.872 154.25C432.616 151.522 435.835 150.304 440.287 150.31C441.756 150.312 443.509 150.463 444.364 150.662C448.248 151.566 451.143 153.833 452.801 157.269C454.071 159.901 454.451 161.48 454.61 164.791C454.685 166.347 454.802 167.619 454.871 167.619C455.061 167.619 460.579 166.058 463.157 165.275L465.438 164.582V163.822C465.438 163.405 465.278 162.14 465.082 161.013C463.807 153.669 459.882 148.252 453.579 145.133C449.544 143.136 442.386 142.056 436.899 142.616ZM582.742 142.793C578.643 143.421 575.315 144.934 572.671 147.371C570.019 149.815 568.811 151.959 567.249 157.001C567.134 157.37 566.145 154.543 564.099 147.998L562.837 143.959L560.221 143.894L557.605 143.828V167.727V191.625H562.868H568.131L568.135 177.025C568.14 160.65 568.148 160.548 569.759 157.322C571.442 153.953 574.354 151.758 578.525 150.716C580.101 150.322 580.909 150.269 583.905 150.357C586.939 150.448 587.684 150.548 589.248 151.077C593.141 152.393 595.038 154.285 596.345 158.155C596.742 159.328 596.78 160.645 596.85 175.525L596.925 191.625H602.178H607.431V176.266C607.431 157.105 607.319 155.873 605.171 151.481C603.165 147.379 599.593 144.628 594.682 143.402C590.884 142.454 586.433 142.226 582.742 142.793ZM536.318 167.734V191.625H541.581H546.844V167.734V143.843H541.581H536.318V167.734ZM647.307 149.516C653.088 150.669 656.406 154.662 656.02 160.002C655.695 164.493 652.868 167.588 647.851 168.945C645.747 169.515 639.055 169.511 636.905 168.939C631.013 167.372 627.972 163.206 628.738 157.751C629.562 151.883 635.135 148.624 643.572 149.078C644.73 149.14 646.411 149.337 647.307 149.516ZM327.982 150.762C332.324 151.858 335.884 154.717 337.787 158.637C339.141 161.427 339.579 163.177 339.748 166.484C340.06 172.551 338.419 177.334 334.803 180.903C332.839 182.84 330.278 184.222 327.534 184.825C324.863 185.411 320.19 185.207 317.87 184.404C315.53 183.593 313.818 182.54 312.124 180.868C310.316 179.084 309.325 177.443 308.265 174.476L307.423 172.12L307.423 167.85C307.424 163.113 307.637 161.947 309.045 158.963C311.054 154.705 314.377 151.98 319.027 150.779C321.443 150.154 325.544 150.147 327.982 150.762ZM391.05 164.801C391.05 167.46 390.088 170.28 387.974 173.815C384.807 179.11 380.732 183.09 376.975 184.554C375.154 185.264 372.528 185.391 371.417 184.824C369.721 183.959 368.931 182.121 369.13 179.507C369.633 172.93 376.059 167.674 388.009 164.066C389.489 163.62 390.778 163.25 390.875 163.244C390.971 163.238 391.05 163.938 391.05 164.801ZM644.363 192.317C647.659 192.571 651.228 192.887 652.293 193.019C657.73 193.696 660.049 195.556 660.056 199.243C660.063 202.864 657.943 204.749 652.578 205.889C651.172 206.187 649.315 206.263 643.221 206.27C634.518 206.28 632.647 206.055 629.716 204.649C627.817 203.739 626.985 202.847 626.476 201.178C625.239 197.123 627.742 193.544 632.743 192.216C634.471 191.756 637.409 191.782 644.363 192.317Z" fill="#232323"/>
</svg>
