<svg width="615" height="160" viewBox="0 0 615 160" fill="none" xmlns="http://www.w3.org/2000/svg">
<mask id="mask0_1050_6478" style="mask-type:luminance" maskUnits="userSpaceOnUse" x="0" y="0" width="267" height="160">
<path d="M266.593 0.137695H0.849609V159.774H266.593V0.137695Z" fill="white"/>
</mask>
<g mask="url(#mask0_1050_6478)">
<path d="M106.959 94.9878V145.744C106.959 153.496 113.242 159.779 120.994 159.779H252.558C260.31 159.779 266.593 153.496 266.593 145.744V9.49452C266.593 4.32487 262.406 0.137695 257.237 0.137695H116.316C111.146 0.137695 106.959 4.32487 106.959 9.49452V67.0904C106.959 68.784 107.862 70.3513 109.322 71.2074C109.462 71.2916 109.602 71.3758 109.747 71.4601C112.933 73.3408 116.952 71.0484 116.952 67.3477V53.2143V14.9074C116.952 12.2688 119.09 10.1308 121.729 10.1308H251.833C254.472 10.1308 256.61 12.2688 256.61 14.9074V140.429C256.61 145.599 252.423 149.786 247.253 149.786H126.309C121.139 149.786 116.952 145.599 116.952 140.429V95.2311" fill="#2F2F2F"/>
<path d="M251.763 57.1835C250.977 60.3929 250.004 63.5789 248.839 66.6854C240.647 88.7768 223.15 107.57 195.076 109.371C177.443 110.494 160.723 105.362 145.321 97.1839C132.985 90.6014 121.158 83.0738 109.181 75.8036C106.786 74.3299 104.386 72.8796 101.977 71.4573C101.05 70.91 100.115 70.372 99.193 69.8339C72.7931 54.5215 45.1441 43.0828 13.7244 43.6349C9.87881 43.6957 6.03321 44.1962 0.849609 44.6079C19.156 34.3669 37.2658 30.9938 56.5453 33.4546C74.0142 35.5272 88.1662 40.7249 99.193 46.0816C102.866 47.8688 106.196 49.6793 109.181 51.401C113.378 53.8104 116.91 56.0467 119.782 57.8057C134.22 66.6713 149.167 75.4246 165.013 81.1604C189.901 90.1663 214.902 88.8517 237.068 72.379C241.653 68.9684 245.386 64.4257 248.834 60.4537C249.822 59.3028 250.795 58.1941 251.758 57.1835H251.763Z" fill="#414141"/>
<path d="M164.725 68.0345C193.857 65.8029 220.738 57.9525 242.736 36.5205C235.648 60.1982 208.949 72.6334 164.725 68.0345Z" fill="#414141"/>
<path d="M116.982 95.1657C119.288 96.5084 121.585 97.8511 123.877 99.1797C127.484 101.29 131.096 103.39 134.731 105.374C136.542 106.384 138.338 107.409 140.163 108.345L142.9 109.795L145.646 111.18C152.977 114.862 160.434 118.137 168.139 120.532C175.844 122.918 183.798 124.406 191.952 124.677L193.486 124.766L195.021 124.729L198.104 124.677C199.143 124.7 200.153 124.541 201.187 124.476L204.298 124.228C206.347 123.952 208.42 123.615 210.516 123.339C212.574 122.927 214.637 122.45 216.761 122.076C209.379 126.399 201 129.243 192.284 130.478C183.554 131.713 174.539 131.255 165.861 129.543C163.69 129.093 161.552 128.555 159.391 128.031C157.295 127.395 155.143 126.82 153.084 126.095C151.012 125.36 148.902 124.696 146.904 123.849C144.869 123.035 142.834 122.226 140.86 121.313C139.859 120.878 138.862 120.438 137.875 119.989L134.951 118.567C132.991 117.631 131.091 116.63 129.169 115.643C125.36 113.622 121.627 111.521 117.931 109.397C114.984 107.685 112.074 105.94 109.178 104.176C105.819 102.141 102.497 100.092 99.1899 98.0569C91.0589 93.0604 82.9934 88.1527 74.6987 83.769C67.4286 79.8953 59.962 76.438 52.1445 73.8789C48.2474 72.5783 44.2146 71.3806 40.2193 70.6695C36.196 69.9818 32.0416 69.7712 27.9434 71.0952C29.679 69.8321 31.7375 68.9853 33.8521 68.3724C35.9854 67.7876 38.1983 67.5116 40.3971 67.3993C44.8415 67.1888 49.1503 67.6379 53.4731 68.2508C62.1421 69.4999 70.5444 72.1198 78.6005 75.3573C85.7209 78.2298 92.5373 81.5889 99.1945 85.1351C102.568 86.9317 105.899 88.7937 109.183 90.6697C111.803 92.1528 114.399 93.6545 116.982 95.1563" fill="#414141"/>
</g>
<path d="M326.078 90.1406L307.01 29.6605H317.426L333.386 80.3126L349.556 29.6605H359.972L340.904 90.1406H326.078ZM389.383 90.1406V65.3606L368.803 29.6605H380.605L394.507 53.7685L408.367 29.6605H420.169L399.631 65.3606V90.1406H389.383ZM424.328 90.1406L443.396 29.6605H458.222L477.29 90.1406H466.874L449.57 35.8765H451.838L434.744 90.1406H424.328ZM434.954 77.0366V67.5866H466.706V77.0366H434.954ZM493.284 90.1406V29.6605H503.532L531.588 72.2906V29.6605H541.836V90.1406H531.588L503.532 47.5105V90.1406H493.284ZM557.777 90.1406L576.845 29.6605H591.671L610.739 90.1406H600.323L583.019 35.8765H585.287L568.193 90.1406H557.777ZM568.403 77.0366V67.5866H600.155V77.0366H568.403Z" fill="#414141"/>
<path d="M315.99 137.141V122.741H321.55C322.357 122.741 323.06 122.907 323.66 123.241C324.26 123.574 324.727 124.024 325.06 124.591C325.393 125.151 325.56 125.771 325.56 126.451C325.56 127.224 325.353 127.914 324.94 128.521C324.527 129.121 323.973 129.537 323.28 129.771L323.26 129.281C324.193 129.547 324.927 130.014 325.46 130.681C325.993 131.347 326.26 132.154 326.26 133.101C326.26 133.934 326.083 134.654 325.73 135.261C325.377 135.861 324.88 136.324 324.24 136.651C323.6 136.977 322.857 137.141 322.01 137.141H315.99ZM317.47 135.731H321.65C322.237 135.731 322.763 135.627 323.23 135.421C323.697 135.207 324.063 134.907 324.33 134.521C324.603 134.134 324.74 133.667 324.74 133.121C324.74 132.587 324.617 132.107 324.37 131.681C324.123 131.254 323.787 130.914 323.36 130.661C322.94 130.401 322.46 130.271 321.92 130.271H317.47V135.731ZM317.47 128.881H321.54C322 128.881 322.42 128.777 322.8 128.571C323.18 128.357 323.48 128.067 323.7 127.701C323.927 127.334 324.04 126.911 324.04 126.431C324.04 125.751 323.803 125.197 323.33 124.771C322.863 124.344 322.267 124.131 321.54 124.131H317.47V128.881ZM329.856 137.141V122.741H335.416C335.556 122.741 335.712 122.747 335.886 122.761C336.066 122.767 336.246 122.787 336.426 122.821C337.179 122.934 337.816 123.197 338.336 123.611C338.862 124.017 339.259 124.531 339.526 125.151C339.799 125.771 339.936 126.457 339.936 127.211C339.936 128.297 339.649 129.241 339.076 130.041C338.502 130.841 337.682 131.344 336.616 131.551L336.106 131.671H331.326V137.141H329.856ZM338.576 137.141L335.736 131.281L337.146 130.741L340.266 137.141H338.576ZM331.326 130.271H335.376C335.496 130.271 335.636 130.264 335.796 130.251C335.956 130.237 336.112 130.214 336.266 130.181C336.759 130.074 337.162 129.871 337.476 129.571C337.796 129.271 338.032 128.914 338.186 128.501C338.346 128.087 338.426 127.657 338.426 127.211C338.426 126.764 338.346 126.334 338.186 125.921C338.032 125.501 337.796 125.141 337.476 124.841C337.162 124.541 336.759 124.337 336.266 124.231C336.112 124.197 335.956 124.177 335.796 124.171C335.636 124.157 335.496 124.151 335.376 124.151H331.326V130.271ZM344.073 137.141V122.741H353.073V124.151H345.543V129.131H351.873V130.541H345.543V135.731H353.073V137.141H344.073ZM356.079 137.141L361.039 122.741H362.989L367.949 137.141H366.419L361.709 123.561H362.289L357.609 137.141H356.079ZM358.289 133.651V132.271H365.729V133.651H358.289ZM373.993 137.141V124.151H368.963V122.741H380.493V124.151H375.463V137.141H373.993ZM383.697 137.141V122.741H385.167V129.231H393.127V122.741H394.587V137.141H393.127V130.641H385.167V137.141H383.697ZM410.422 137.441C408.989 137.441 407.779 137.124 406.792 136.491C405.806 135.851 405.059 134.967 404.552 133.841C404.046 132.714 403.792 131.414 403.792 129.941C403.792 128.467 404.046 127.167 404.552 126.041C405.059 124.914 405.806 124.034 406.792 123.401C407.779 122.761 408.989 122.441 410.422 122.441C411.862 122.441 413.072 122.761 414.052 123.401C415.039 124.034 415.786 124.914 416.292 126.041C416.806 127.167 417.062 128.467 417.062 129.941C417.062 131.414 416.806 132.714 416.292 133.841C415.786 134.967 415.039 135.851 414.052 136.491C413.072 137.124 411.862 137.441 410.422 137.441ZM410.422 136.031C411.549 136.031 412.489 135.774 413.242 135.261C413.996 134.747 414.559 134.034 414.932 133.121C415.312 132.201 415.502 131.141 415.502 129.941C415.502 128.741 415.312 127.684 414.932 126.771C414.559 125.857 413.996 125.144 413.242 124.631C412.489 124.117 411.549 123.857 410.422 123.851C409.296 123.851 408.359 124.107 407.612 124.621C406.866 125.134 406.302 125.851 405.922 126.771C405.549 127.684 405.359 128.741 405.352 129.941C405.346 131.141 405.529 132.197 405.902 133.111C406.282 134.017 406.849 134.731 407.602 135.251C408.356 135.764 409.296 136.024 410.422 136.031ZM420.665 137.141V122.741H428.935V124.211H422.135V129.211H427.735V130.671H422.135V137.141H420.665ZM437.947 137.141V122.741H446.217V124.211H439.417V129.211H445.017V130.671H439.417V137.141H437.947ZM449.625 137.141V122.741H455.185C455.325 122.741 455.482 122.747 455.655 122.761C455.835 122.767 456.015 122.787 456.195 122.821C456.949 122.934 457.585 123.197 458.105 123.611C458.632 124.017 459.029 124.531 459.295 125.151C459.569 125.771 459.705 126.457 459.705 127.211C459.705 128.297 459.419 129.241 458.845 130.041C458.272 130.841 457.452 131.344 456.385 131.551L455.875 131.671H451.095V137.141H449.625ZM458.345 137.141L455.505 131.281L456.915 130.741L460.035 137.141H458.345ZM451.095 130.271H455.145C455.265 130.271 455.405 130.264 455.565 130.251C455.725 130.237 455.882 130.214 456.035 130.181C456.529 130.074 456.932 129.871 457.245 129.571C457.565 129.271 457.802 128.914 457.955 128.501C458.115 128.087 458.195 127.657 458.195 127.211C458.195 126.764 458.115 126.334 457.955 125.921C457.802 125.501 457.565 125.141 457.245 124.841C456.932 124.541 456.529 124.337 456.035 124.231C455.882 124.197 455.725 124.177 455.565 124.171C455.405 124.157 455.265 124.151 455.145 124.151H451.095V130.271ZM463.843 137.141V122.741H472.843V124.151H465.313V129.131H471.643V130.541H465.313V135.731H472.843V137.141H463.843ZM481.322 137.441C480.315 137.441 479.408 137.274 478.602 136.941C477.802 136.601 477.138 136.121 476.612 135.501C476.092 134.881 475.752 134.144 475.592 133.291L477.092 133.041C477.332 133.974 477.838 134.707 478.612 135.241C479.385 135.767 480.308 136.031 481.382 136.031C482.088 136.031 482.722 135.921 483.282 135.701C483.842 135.474 484.282 135.154 484.602 134.741C484.922 134.327 485.082 133.837 485.082 133.271C485.082 132.897 485.015 132.581 484.882 132.321C484.748 132.054 484.572 131.834 484.352 131.661C484.132 131.487 483.892 131.344 483.632 131.231C483.372 131.111 483.118 131.014 482.872 130.941L479.222 129.851C478.782 129.724 478.375 129.564 478.002 129.371C477.628 129.171 477.302 128.934 477.022 128.661C476.748 128.381 476.535 128.054 476.382 127.681C476.228 127.307 476.152 126.881 476.152 126.401C476.152 125.587 476.365 124.884 476.792 124.291C477.218 123.697 477.802 123.241 478.542 122.921C479.282 122.601 480.125 122.444 481.072 122.451C482.032 122.451 482.888 122.621 483.642 122.961C484.402 123.301 485.028 123.787 485.522 124.421C486.015 125.047 486.342 125.791 486.502 126.651L484.962 126.931C484.862 126.304 484.632 125.761 484.272 125.301C483.912 124.841 483.452 124.487 482.892 124.241C482.338 123.987 481.728 123.857 481.062 123.851C480.415 123.851 479.838 123.961 479.332 124.181C478.832 124.394 478.435 124.687 478.142 125.061C477.848 125.434 477.702 125.861 477.702 126.341C477.702 126.827 477.835 127.217 478.102 127.511C478.375 127.804 478.708 128.034 479.102 128.201C479.502 128.367 479.888 128.504 480.262 128.611L483.082 129.441C483.375 129.521 483.718 129.637 484.112 129.791C484.512 129.937 484.898 130.151 485.272 130.431C485.652 130.704 485.965 131.064 486.212 131.511C486.458 131.957 486.582 132.524 486.582 133.211C486.582 133.877 486.448 134.474 486.182 135.001C485.922 135.527 485.552 135.971 485.072 136.331C484.598 136.691 484.042 136.964 483.402 137.151C482.768 137.344 482.075 137.441 481.322 137.441ZM490.246 137.141V122.741H491.716V129.231H499.676V122.741H501.136V137.141H499.676V130.641H491.716V137.141H490.246ZM516.971 137.441C515.538 137.441 514.328 137.124 513.341 136.491C512.355 135.851 511.608 134.967 511.101 133.841C510.595 132.714 510.341 131.414 510.341 129.941C510.341 128.467 510.595 127.167 511.101 126.041C511.608 124.914 512.355 124.034 513.341 123.401C514.328 122.761 515.538 122.441 516.971 122.441C518.645 122.441 520.011 122.871 521.071 123.731C522.131 124.584 522.858 125.731 523.251 127.171L521.751 127.561C521.445 126.421 520.895 125.517 520.101 124.851C519.308 124.184 518.265 123.851 516.971 123.851C515.845 123.851 514.908 124.107 514.161 124.621C513.415 125.134 512.851 125.851 512.471 126.771C512.098 127.684 511.905 128.741 511.891 129.941C511.885 131.141 512.068 132.197 512.441 133.111C512.821 134.024 513.388 134.741 514.141 135.261C514.901 135.774 515.845 136.031 516.971 136.031C518.265 136.031 519.308 135.697 520.101 135.031C520.895 134.357 521.445 133.454 521.751 132.321L523.251 132.711C522.858 134.151 522.131 135.301 521.071 136.161C520.011 137.014 518.645 137.441 516.971 137.441ZM532.888 137.441C531.454 137.441 530.244 137.124 529.258 136.491C528.271 135.851 527.524 134.967 527.018 133.841C526.511 132.714 526.258 131.414 526.258 129.941C526.258 128.467 526.511 127.167 527.018 126.041C527.524 124.914 528.271 124.034 529.258 123.401C530.244 122.761 531.454 122.441 532.888 122.441C534.328 122.441 535.538 122.761 536.518 123.401C537.504 124.034 538.251 124.914 538.758 126.041C539.271 127.167 539.528 128.467 539.528 129.941C539.528 131.414 539.271 132.714 538.758 133.841C538.251 134.967 537.504 135.851 536.518 136.491C535.538 137.124 534.328 137.441 532.888 137.441ZM532.888 136.031C534.014 136.031 534.954 135.774 535.708 135.261C536.461 134.747 537.024 134.034 537.398 133.121C537.778 132.201 537.968 131.141 537.968 129.941C537.968 128.741 537.778 127.684 537.398 126.771C537.024 125.857 536.461 125.144 535.708 124.631C534.954 124.117 534.014 123.857 532.888 123.851C531.761 123.851 530.824 124.107 530.078 124.621C529.331 125.134 528.768 125.851 528.388 126.771C528.014 127.684 527.824 128.741 527.818 129.941C527.811 131.141 527.994 132.197 528.368 133.111C528.748 134.017 529.314 134.731 530.068 135.251C530.821 135.764 531.761 136.024 532.888 136.031ZM548.96 137.441C547.527 137.441 546.317 137.124 545.33 136.491C544.344 135.851 543.597 134.967 543.09 133.841C542.584 132.714 542.33 131.414 542.33 129.941C542.33 128.467 542.584 127.167 543.09 126.041C543.597 124.914 544.344 124.034 545.33 123.401C546.317 122.761 547.527 122.441 548.96 122.441C550.4 122.441 551.61 122.761 552.59 123.401C553.577 124.034 554.324 124.914 554.83 126.041C555.344 127.167 555.6 128.467 555.6 129.941C555.6 131.414 555.344 132.714 554.83 133.841C554.324 134.967 553.577 135.851 552.59 136.491C551.61 137.124 550.4 137.441 548.96 137.441ZM548.96 136.031C550.087 136.031 551.027 135.774 551.78 135.261C552.534 134.747 553.097 134.034 553.47 133.121C553.85 132.201 554.04 131.141 554.04 129.941C554.04 128.741 553.85 127.684 553.47 126.771C553.097 125.857 552.534 125.144 551.78 124.631C551.027 124.117 550.087 123.857 548.96 123.851C547.834 123.851 546.897 124.107 546.15 124.621C545.404 125.134 544.84 125.851 544.46 126.771C544.087 127.684 543.897 128.741 543.89 129.941C543.884 131.141 544.067 132.197 544.44 133.111C544.82 134.017 545.387 134.731 546.14 135.251C546.894 135.764 547.834 136.024 548.96 136.031ZM559.403 137.141V122.741H560.873V135.731H567.713V137.141H559.403ZM574.626 137.141L579.586 122.741H581.536L586.496 137.141H584.966L580.256 123.561H580.836L576.156 137.141H574.626ZM576.836 133.651V132.271H584.276V133.651H576.836ZM590.102 137.141V122.741H591.572V137.141H590.102ZM596.17 137.141V122.741H601.73C601.87 122.741 602.026 122.747 602.2 122.761C602.38 122.767 602.56 122.787 602.74 122.821C603.493 122.934 604.13 123.197 604.65 123.611C605.176 124.017 605.573 124.531 605.84 125.151C606.113 125.771 606.25 126.457 606.25 127.211C606.25 128.297 605.963 129.241 605.39 130.041C604.816 130.841 603.996 131.344 602.93 131.551L602.42 131.671H597.64V137.141H596.17ZM604.89 137.141L602.05 131.281L603.46 130.741L606.58 137.141H604.89ZM597.64 130.271H601.69C601.81 130.271 601.95 130.264 602.11 130.251C602.27 130.237 602.426 130.214 602.58 130.181C603.073 130.074 603.476 129.871 603.79 129.571C604.11 129.271 604.346 128.914 604.5 128.501C604.66 128.087 604.74 127.657 604.74 127.211C604.74 126.764 604.66 126.334 604.5 125.921C604.346 125.501 604.11 125.141 603.79 124.841C603.476 124.541 603.073 124.337 602.58 124.231C602.426 124.197 602.27 124.177 602.11 124.171C601.95 124.157 601.81 124.151 601.69 124.151H597.64V130.271Z" fill="#2F2F2F"/>
</svg>
